<svg xmlns="http://www.w3.org/2000/svg" viewBox="0 0 1134.67 268.69"><defs><style>.cls-1{fill:#272524;}</style></defs><g id="Layer_2" data-name="Layer 2"><g id="Layer_1-2" data-name="Layer 1"><path class="cls-1" d="M1050.35,117.35l84.32,79v72.39L977,121.67v147H924.36V0ZM1134.67,0V146.64L1082,96.71V0Z"/><path class="cls-1" d="M88.12,66.59a82,82,0,0,1,117,109.14L244,212A134.35,134.35,0,0,0,49.27,30.37Z"/><path class="cls-1" d="M180.57,202.1A82,82,0,0,1,63.54,93L24.68,56.73A134.35,134.35,0,0,0,219.42,238.32Z"/><path class="cls-1" d="M721.12,66.59a82,82,0,0,1,117,109.14L877,212A134.35,134.35,0,0,0,682.27,30.37Z"/><path class="cls-1" d="M813.57,202.1A82,82,0,0,1,696.54,93L657.68,56.73A134.34,134.34,0,0,0,852.41,238.32Z"/><polygon class="cls-1" points="610.32 0.03 610.32 0 610.28 0 610.32 0.03"/><polygon class="cls-1" points="557.44 0.01 557.44 268.69 610.32 268.69 610.32 49.32 557.44 0.01"/><polygon class="cls-1" points="557.44 0 557.44 0 557.44 0.01 557.44 0"/><path class="cls-1" d="M342.2,50.88h87.26a44.29,44.29,0,0,1,7.1.5c19,3,31.36,17.84,32.67,31.73.84,9-2.68,18.47-9.67,26.1a41.4,41.4,0,0,1-30.82,13.49h-.32l-46.58-.32,92.74,146.32h60.18L468.71,164.47A92.12,92.12,0,0,0,497,143.55c16.69-18.21,25-42,22.81-65.23C517.9,57.84,508,38.54,492,24A92.89,92.89,0,0,0,433.49.06L433,0,291.37.05V268.69H342.2Z"/></g></g></svg>