<?xml version="1.0" encoding="utf-8"?>
<!-- Generator: Adobe Illustrator 16.0.0, SVG Export Plug-In . SVG Version: 6.00 Build 0)  -->
<!DOCTYPE svg PUBLIC "-//W3C//DTD SVG 1.0//EN" "http://www.w3.org/TR/2001/REC-SVG-20010904/DTD/svg10.dtd">
<svg version="1.0" id="Layer_1" xmlns="http://www.w3.org/2000/svg" xmlns:xlink="http://www.w3.org/1999/xlink" x="0px" y="0px"
	 width="100px" height="100px" viewBox="0 0 100 100" enable-background="new 0 0 100 100" xml:space="preserve">
<path fill="#FFC00E" d="M59.375,59.085c-5.201-5.201-13.646-5.208-18.851,0L21.667,40.228l28.284-28.284
	c2.591-2.591,6.833-2.591,9.424,0l18.859,18.857c2.592,2.595,2.592,6.836,0,9.427L59.375,59.085z"/>
<polygon fill="#FFF8E1" points="59.377,49.659 73.521,35.515 54.661,16.66 40.522,30.8 "/>
<path fill="#FFF8E1" d="M35.81,35.515l-4.713,4.713l10.234,10.238c2.378-1.133,4.936-1.77,7.516-1.911L35.81,35.515z"/>
<path fill="#7CB342" d="M46.422,29.623c3.903,4.189,10.224,4.186,14.125,0C56.646,25.44,50.322,25.436,46.422,29.623z"/>
<path fill="#7CB342" d="M60.553,29.633c-4.188,3.899-4.188,10.221,0,14.124C64.739,39.854,64.739,33.532,60.553,29.633z"/>
<path fill="#7CB342" d="M51.667,71.666c0,2.465,1.292,5.141,3.333,6.666c2.041-1.525,3.333-4.201,3.333-6.666
	c0-1.839-1.495-3.332-3.333-3.332C53.161,68.334,51.667,69.827,51.667,71.666z"/>
<path fill="#7CB342" d="M49.714,61.952c-2.523-0.364-5.329,0.616-7.07,2.358c-1.303,1.301-1.303,3.414,0,4.712
	c1.298,1.304,3.414,1.304,4.713,0C49.098,67.285,50.078,64.479,49.714,61.952z"/>
<path fill="#8D6F64" d="M64.261,76.666l-1.852,1.536c-8.239,6.836-16.586,6.836-24.818,0l-1.852-1.536H10v6.666h23.333
	c11.11,9.222,23.032,8.552,33.333,0H90v-6.666H64.261z"/>
<path fill="#EEEAE8" d="M33.333,83.332H10v6.667h80v-6.667H66.666C56.365,91.884,44.443,92.554,33.333,83.332z"/>
</svg>
