<?xml version="1.0" encoding="utf-8"?>
<!-- Generator: Adobe Illustrator 16.0.0, SVG Export Plug-In . SVG Version: 6.00 Build 0)  -->
<!DOCTYPE svg PUBLIC "-//W3C//DTD SVG 1.0//EN" "http://www.w3.org/TR/2001/REC-SVG-20010904/DTD/svg10.dtd">
<svg version="1.0" id="Layer_1" xmlns="http://www.w3.org/2000/svg" xmlns:xlink="http://www.w3.org/1999/xlink" x="0px" y="0px"
	 width="100px" height="100px" viewBox="0 0 100 100" enable-background="new 0 0 100 100" xml:space="preserve">
<path fill="#BDBCBC" d="M63.332,90h6.666V43.333c0-13.018-7.643-24.805-20-33.333c-12.356,8.529-20,20.315-20,33.333V90h6.667
	V43.333c0-9.089,4.7-17.826,13.333-24.987c8.64,7.162,13.333,15.898,13.333,24.987V90z"/>
<path fill="#F4F5F5" d="M63.332,90V43.333c0-9.089-4.693-17.826-13.333-24.987c-8.633,7.162-13.333,15.898-13.333,24.987V90H63.332z
	"/>
<rect x="44.999" y="76.666" fill="#37474F" width="10" height="13.334"/>
<rect x="46.666" y="61.666" fill="#37474F" width="6.667" height="6.667"/>
<polygon fill="#8D6F64" points="76.354,10 50.001,39.58 23.645,10 16.668,16.979 46.249,43.333 16.668,69.688 23.645,76.666 
	50.001,47.087 76.354,76.666 83.332,69.685 53.756,43.333 83.332,16.983 "/>
<path fill="#767676" d="M40.667,29.104c0.681-1.169,1.442-2.319,2.288-3.446l-4.501-5.052c-0.862,1.08-1.663,2.188-2.401,3.317
	L40.667,29.104z"/>
<polygon fill="#767676" points="36.666,51.87 36.666,46.515 29.999,52.453 29.999,57.811 "/>
<path fill="#767676" d="M63.15,40.321l5.802-5.17c-0.356-1.409-0.813-2.795-1.345-4.158l-5.392,4.804
	C62.651,37.288,62.975,38.796,63.15,40.321z"/>
<polygon fill="#767676" points="63.332,62.049 63.332,68.063 69.998,75.545 69.998,69.531 "/>
</svg>
