<?xml version="1.0" encoding="utf-8"?>
<!-- Generator: Adobe Illustrator 16.0.0, SVG Export Plug-In . SVG Version: 6.00 Build 0)  -->
<!DOCTYPE svg PUBLIC "-//W3C//DTD SVG 1.0//EN" "http://www.w3.org/TR/2001/REC-SVG-20010904/DTD/svg10.dtd">
<svg version="1.0" id="Layer_1" xmlns="http://www.w3.org/2000/svg" xmlns:xlink="http://www.w3.org/1999/xlink" x="0px" y="0px"
	 width="100px" height="100px" viewBox="0 0 100 100" enable-background="new 0 0 100 100" xml:space="preserve">
<path fill="#8D6F64" d="M53.334,23.333v3.333C53.334,28.502,51.837,30,50,30c-1.836,0-3.333-1.498-3.333-3.333v-3.333H40v3.333
	c0,4.353,2.784,8.044,6.667,9.418V40h6.667v-3.915C57.214,34.711,60,31.019,60,26.667v-3.333H53.334z"/>
<polygon fill="#FFC00E" points="60,16.667 56.666,10 43.333,10 40,16.667 33.333,20 33.333,23.333 66.666,23.333 66.666,20 "/>
<polygon fill="#BDBCBC" points="26.667,40 26.667,53.333 36.667,60 36.667,76.666 63.333,76.666 63.333,60 73.333,53.333 73.333,40 
	"/>
<polygon fill="#F4F5F5" points="66.666,46.667 33.333,46.667 33.333,49.766 43.333,56.432 43.333,70 56.666,70 56.666,56.432 
	66.666,49.766 "/>
<path fill="#6D4D41" d="M46.667,26.667v-3.333H40v3.333c0,0.226,0.02,0.446,0.034,0.667h6.701
	C46.69,27.118,46.667,26.896,46.667,26.667z"/>
<path fill="#6D4D41" d="M60,26.667v-3.333h-6.666v3.333c0,0.229-0.023,0.452-0.067,0.667h6.7C59.982,27.112,60,26.892,60,26.667z"/>
<rect x="46.667" y="76.666" fill="#8D6F64" width="6.667" height="13.334"/>
<rect x="46.667" y="76.666" fill="#6D4D41" width="6.667" height="4"/>
<polygon fill="#8D6F64" points="90,34.023 87.643,31.667 75.14,40 73.333,40 73.333,46.667 90,46.667 90,43.333 84.024,40 "/>
<polygon fill="#8D6F64" points="26.667,40 24.86,40 12.357,31.667 10,34.023 15.977,40 10,43.333 10,46.667 26.667,46.667 "/>
</svg>
