<?xml version="1.0" encoding="utf-8"?>
<!-- Generator: Adobe Illustrator 16.0.0, SVG Export Plug-In . SVG Version: 6.00 Build 0)  -->
<!DOCTYPE svg PUBLIC "-//W3C//DTD SVG 1.0//EN" "http://www.w3.org/TR/2001/REC-SVG-20010904/DTD/svg10.dtd">
<svg version="1.0" id="Layer_1" xmlns="http://www.w3.org/2000/svg" xmlns:xlink="http://www.w3.org/1999/xlink" x="0px" y="0px"
	 width="100px" height="100px" viewBox="0 0 100 100" enable-background="new 0 0 100 100" xml:space="preserve">
<path fill="#3F4DA0" d="M80,20H66.666l-3.333,3.333v60c0,3.681-2.984,6.667-6.667,6.667h26.667C87.011,90,90,87.014,90,83.333V30
	L80,20z"/>
<rect x="63.333" y="43.333" fill="#E8E9F5" width="20" height="26.667"/>
<polygon fill="#E8E9F5" points="83.333,36.667 83.333,32.76 77.239,26.667 69.427,26.667 63.333,32.76 63.333,36.667 "/>
<rect x="63.333" y="76.666" fill="#E8E9F5" width="20" height="6.667"/>
<path fill="#9D9D9D" d="M56.666,16.667h-10c-1.833,0-4.395,1.061-5.69,2.356L30,30H16.667L10,36.667v46.667
	C10,87.014,12.985,90,16.667,90h40c3.683,0,6.667-2.986,6.667-6.667v-60C63.333,19.651,60.349,16.667,56.666,16.667z M36.667,36.667
	l-1.954-1.954l11.375-11.379h10.579v13.333H36.667z"/>
<path fill="#7CB342" d="M80,13.333C80,11.501,78.498,10,76.666,10H70c-1.833,0-3.334,1.501-3.334,3.333v3.333H80V13.333z"/>
<path fill="#7CB342" d="M68.714,58.086c-0.245,0.592-0.381,1.236-0.381,1.914c0,2.763,2.235,5,5,5c2.764,0,5-2.237,5-5
	c0-0.678-0.138-1.322-0.382-1.914c0.007,0.003-4.618-9.752-4.618-9.752L68.714,58.086z"/>
<path fill="#478ECC" d="M30,23.333C30,21.501,28.499,20,26.667,20H20c-1.833,0-3.333,1.501-3.333,3.333v3.333H30V23.333z"/>
<polygon fill="#F4F5F5" points="56.666,50 56.666,43.333 33.903,43.333 27.236,36.667 19.431,36.667 16.667,39.427 16.667,50 "/>
<rect x="16.667" y="56.666" fill="#F4F5F5" width="40" height="26.667"/>
<path fill="#478ECC" d="M42.048,71.419c-0.245,0.592-0.381,1.237-0.381,1.914c0,2.764,2.237,5,5,5c2.764,0,5-2.236,5-5
	c0-0.677-0.137-1.322-0.38-1.914c0.006,0.003-4.62-9.753-4.62-9.753L42.048,71.419z"/>
<rect x="21.667" y="61.666" fill="#424243" width="16.667" height="5"/>
<rect x="21.667" y="71.666" fill="#424243" width="13.333" height="5"/>
<path fill="#2D2F78" d="M56.666,90h8.313c1.469-1.828,2.354-4.146,2.354-6.667h-4C63.333,87.014,60.349,90,56.666,90z"/>
<rect x="63.333" y="70" fill="#2D2F78" width="4" height="6.666"/>
<rect x="63.333" y="36.667" fill="#2D2F78" width="4" height="6.667"/>
<path fill="#2D2F78" d="M67.333,23.333c0-1.165-0.195-2.284-0.541-3.333h-0.126l-3.333,3.333v9.427l4-4V23.333z"/>
<rect x="63.333" y="76.666" fill="#C4C9E5" width="4" height="6.667"/>
<polygon fill="#C4C9E5" points="67.333,28.761 63.333,32.76 63.333,36.667 67.333,36.667 "/>
<rect x="63.333" y="43.333" fill="#C4C9E5" width="4" height="26.667"/>
</svg>
