<?xml version="1.0" encoding="utf-8"?>
<!-- Generator: Adobe Illustrator 16.0.0, SVG Export Plug-In . SVG Version: 6.00 Build 0)  -->
<!DOCTYPE svg PUBLIC "-//W3C//DTD SVG 1.0//EN" "http://www.w3.org/TR/2001/REC-SVG-20010904/DTD/svg10.dtd">
<svg version="1.0" id="Layer_1" xmlns="http://www.w3.org/2000/svg" xmlns:xlink="http://www.w3.org/1999/xlink" x="0px" y="0px"
	 width="100px" height="100px" viewBox="0 0 100 100" enable-background="new 0 0 100 100" xml:space="preserve">
<path fill="#F1F7E9" d="M63.916,76.666C65.291,72.784,68.982,70,73.333,70s8.044,2.784,9.419,6.666h0.581v-10
	c0-3.682-1.491-7.015-3.906-9.427c-1.229-1.227-2.695-2.214-4.322-2.888c0,0.002-4.545-1.881-10.511-4.352H45.493
	c6.809,5.505,11.174,13.919,11.174,23.336v3.33H63.916z"/>
<rect x="16.667" y="16.667" fill="#BDBCBC" width="6.666" height="26.667"/>
<rect x="30" y="16.667" fill="#BDBCBC" width="6.667" height="26.667"/>
<polygon fill="#BDBCBC" points="65.925,43.333 53.333,16.667 45.959,16.667 58.553,43.333 "/>
<rect x="23.333" y="16.667" fill="#F4F5F5" width="6.667" height="26.667"/>
<polygon fill="#F4F5F5" points="45.959,16.667 36.667,16.667 36.667,43.333 58.553,43.333 "/>
<path fill="#7CB342" d="M84.141,52.525c-1.869-1.864-4.05-3.323-6.49-4.335l-11.726-4.856H10V50h16.667
	C39.558,50,50,60.445,50,73.336v9.997h40V66.666C90,61.322,87.917,56.295,84.141,52.525z M56.667,76.666v-3.33
	c0-9.417-4.365-17.831-11.174-23.336h19.101c5.966,2.471,10.511,4.354,10.511,4.352c1.627,0.674,3.093,1.661,4.322,2.888
	c2.415,2.412,3.906,5.745,3.906,9.427v10H56.667z"/>
<path fill="#424243" d="M43.333,73.336C43.333,82.539,35.872,90,26.667,90C17.461,90,10,82.539,10,73.336
	c0-9.209,7.461-16.67,16.667-16.67C35.872,56.666,43.333,64.127,43.333,73.336z"/>
<path fill="#ECEFF0" d="M26.667,83.333c-5.514,0-10-4.486-10-9.997c0-5.514,4.486-10.003,10-10.003c5.514,0,10,4.489,10,10.003
	C36.667,78.847,32.181,83.333,26.667,83.333z"/>
<path fill="#424243" d="M26.667,76.666c-1.836,0-3.334-1.494-3.334-3.333c0-1.836,1.498-3.333,3.334-3.333S30,71.497,30,73.333
	C30,75.172,28.503,76.666,26.667,76.666z"/>
<circle fill="#424243" cx="73.333" cy="80" r="10"/>
<path fill="#568B3F" d="M63.333,80c0-1.172,0.212-2.291,0.583-3.334h-4.164c-0.265,1.07-0.419,2.183-0.419,3.334
	c0,1.15,0.154,2.263,0.419,3.333h4.162C63.545,82.289,63.333,81.17,63.333,80z"/>
<path fill="#ECEFF0" d="M73.333,83.333C71.497,83.333,70,81.839,70,80s1.497-3.334,3.333-3.334c1.844,0,3.334,1.495,3.334,3.334
	S75.177,83.333,73.333,83.333z"/>
<rect x="10" y="10" fill="#FFC00E" width="50" height="6.667"/>
<rect x="16.667" y="16.667" fill="#767676" width="6.666" height="4"/>
<rect x="30" y="16.667" fill="#767676" width="6.667" height="4"/>
<polygon fill="#767676" points="45.959,16.667 47.848,20.667 55.222,20.667 53.333,16.667 "/>
</svg>
