<?xml version="1.0" encoding="utf-8"?>
<!-- Generator: Adobe Illustrator 16.0.0, SVG Export Plug-In . SVG Version: 6.00 Build 0)  -->
<!DOCTYPE svg PUBLIC "-//W3C//DTD SVG 1.0//EN" "http://www.w3.org/TR/2001/REC-SVG-20010904/DTD/svg10.dtd">
<svg version="1.0" id="Layer_1" xmlns="http://www.w3.org/2000/svg" xmlns:xlink="http://www.w3.org/1999/xlink" x="0px" y="0px"
	 width="100px" height="100px" viewBox="0 0 100 100" enable-background="new 0 0 100 100" xml:space="preserve">
<path fill="#BDBCBC" d="M75.695,67.65l-7.648-7.649h-9.428l12.364,12.362C71.969,70.302,73.635,68.636,75.695,67.65z"/>
<path fill="#FFC00E" d="M23.333,30.001v16.667l0.013,0.003h-0.013c0,7.36,5.97,13.333,13.333,13.333v-0.003h39.999L90,46.667V30.001
	H23.333z"/>
<polygon fill="#BDBCBC" points="36.667,60.001 36.667,60.004 36.667,86.666 43.333,86.666 43.333,60.001 "/>
<polygon fill="#767676" points="58.619,60.001 62.619,64.001 72.046,64.001 68.046,60.001 "/>
<polygon fill="#767676" points="36.667,60.001 36.667,60.004 36.667,64.004 40.667,64.001 43.333,64.001 43.333,60.001 "/>
<circle fill="#424243" cx="80" cy="76.666" r="10"/>
<circle fill="#ECEFF0" cx="80" cy="76.666" r="3.333"/>
<path fill="#BDBCBC" d="M16.667,13.334H10v6.667h6.667c3.681,0,6.666,2.985,6.666,6.666v3.333H30v-3.333
	C30,19.308,24.03,13.334,16.667,13.334z"/>
<path fill="#FFF8E1" d="M83.333,36.667H30v10l-0.013,0.003H30c0,3.682,2.985,6.667,6.667,6.667v-0.003h37.239l9.427-9.427V36.667z"
	/>
</svg>
