<?xml version="1.0" encoding="utf-8"?>
<!-- Generator: Adobe Illustrator 16.0.0, SVG Export Plug-In . SVG Version: 6.00 Build 0)  -->
<!DOCTYPE svg PUBLIC "-//W3C//DTD SVG 1.0//EN" "http://www.w3.org/TR/2001/REC-SVG-20010904/DTD/svg10.dtd">
<svg version="1.0" id="Layer_1" xmlns="http://www.w3.org/2000/svg" xmlns:xlink="http://www.w3.org/1999/xlink" x="0px" y="0px"
	 width="100px" height="100px" viewBox="0 0 100 100" enable-background="new 0 0 100 100" xml:space="preserve">
<polygon fill="#FFC00E" points="60.001,48.823 60.001,43.333 70.001,43.333 70.001,50.882 76.666,52.254 76.666,36.667 
	53.334,36.667 53.334,47.451 "/>
<polygon fill="#F68E1E" points="60.001,48.823 60.001,44.74 53.334,43.367 53.334,47.451 "/>
<polygon fill="#F68E1E" points="76.666,52.254 76.666,48.17 70.001,46.798 70.001,50.882 "/>
<path fill="#424243" d="M90,78.332c0,6.445-5.228,11.667-11.667,11.667c-6.445,0-11.667-5.222-11.667-11.667
	s5.222-11.667,11.667-11.667C84.772,66.665,90,71.887,90,78.332z"/>
<path fill="#7CB342" d="M85.104,53.99L33.333,43.333l-1.347,6.531L83.333,60.43v7.375C87.269,69.678,90,73.681,90,78.332V60
	C90,57.245,87.792,54.544,85.104,53.99z"/>
<path fill="#7CB342" d="M66.666,78.332c0-0.566,0.054-1.121,0.132-1.667h-23.8c-0.501,2.469-1.561,4.727-3.021,6.667h27.826
	C67.082,81.816,66.666,80.125,66.666,78.332z"/>
<path fill="#568B3F" d="M83.333,63.498v4.307C87.269,69.678,90,73.681,90,78.332v-10.42C88.213,65.914,85.927,64.375,83.333,63.498z
	"/>
<path fill="#568B3F" d="M66.666,78.332c0-0.566,0.054-1.121,0.132-1.667h-4.041c-0.058,0.549-0.091,1.104-0.091,1.667
	c0,1.75,0.3,3.427,0.832,5h4.305C67.082,81.816,66.666,80.125,66.666,78.332z"/>
<path fill="#ECEFF0" d="M83.333,78.332c0,2.762-2.239,5-5,5c-2.767,0-5-2.238-5-5c0-2.767,2.233-5,5-5
	C81.094,73.332,83.333,75.565,83.333,78.332z"/>
<circle fill="#424243" cx="26.667" cy="73.332" r="16.666"/>
<path fill="#7CB342" d="M16.667,60.021V36.667h10v-6.667h-10c-3.668,0-6.666,3.001-6.666,6.667v36.665
	C10,67.885,12.625,63.063,16.667,60.021z"/>
<path fill="#9D9D9D" d="M30.295,57.074c2.955,0.657,5.607,2.101,7.742,4.098l-10.29-46.289C27.155,12.195,24.415,10,21.667,10H10
	v6.667h11.315L30.295,57.074z"/>
<path fill="#F1F7E9" d="M26.667,56.666c1.248,0,2.459,0.148,3.629,0.408L25.76,36.667h-9.094v23.354
	C19.454,57.924,22.909,56.666,26.667,56.666z"/>
<path fill="#568B3F" d="M42.998,76.665c-0.501,2.469-1.561,4.727-3.021,6.667h4.768c1.131-2.037,1.927-4.284,2.315-6.667H42.998z"/>
<path fill="#616262" d="M38.037,61.172l-1.307-5.88c-2.236-1.253-4.727-2.1-7.374-2.445l0.939,4.228
	C33.25,57.731,35.903,59.175,38.037,61.172z"/>
<path fill="#568B3F" d="M16.667,60.021v-4.767c-2.624,1.458-4.899,3.469-6.666,5.876v12.201C10,67.885,12.625,63.063,16.667,60.021z
	"/>
<path fill="#ECEFF0" d="M36.666,73.332c0,5.521-4.478,10-10,10c-5.524,0-10-4.479-10-10c0-5.527,4.476-9.999,10-9.999
	C32.188,63.333,36.666,67.805,36.666,73.332z"/>
<circle fill="#424243" cx="26.667" cy="73.332" r="3.333"/>
<polygon fill="#FFF8E1" points="70.001,50.881 70.001,43.333 60.001,43.333 60.001,48.823 "/>
<path fill="#F1F7E9" d="M43.333,73.332c0,1.143-0.116,2.257-0.334,3.333h23.8c0.811-5.652,5.657-10,11.535-10
	c1.791,0,3.482,0.417,5,1.14V60.43l-47.64-9.803l2.344,10.545C41.289,64.212,43.333,68.528,43.333,73.332z"/>
</svg>
