<?xml version="1.0" encoding="utf-8"?>
<!-- Generator: Adobe Illustrator 16.0.0, SVG Export Plug-In . SVG Version: 6.00 Build 0)  -->
<!DOCTYPE svg PUBLIC "-//W3C//DTD SVG 1.0//EN" "http://www.w3.org/TR/2001/REC-SVG-20010904/DTD/svg10.dtd">
<svg version="1.0" id="Layer_1" xmlns="http://www.w3.org/2000/svg" xmlns:xlink="http://www.w3.org/1999/xlink" x="0px" y="0px"
	 width="100px" height="100px" viewBox="0 0 100 100" enable-background="new 0 0 100 100" xml:space="preserve">
<path fill="#9D9D9D" d="M21.632,83.334h22.417c2.328-9.131,2.427-18.962-0.185-28.711l-1.667-6.218L10,57.033l1.667,6.217
	C13.685,70.783,17.137,77.538,21.632,83.334z"/>
<path fill="#F4F5F5" d="M37.156,83.334c2.525-8.651,2.674-17.842,0.328-26.764l-19.32,5.175c2.248,8.239,6.461,15.601,12.23,21.589
	H37.156z"/>
<path fill="#7CB342" d="M89.958,33.373C81.903,32.94,74.83,35.94,70,41.088V10.001h-6.667v15.754
	c-7.078-10.213-19.173-16.462-33.27-15.69c-1.143,21.025,13.303,37.617,33.27,39.706v33.563H70V59.517
	C82.141,57.193,90.675,46.607,89.958,33.373z"/>
<rect x="-7.353" y="36.508" transform="matrix(-0.2588 -0.9659 0.9659 -0.2588 -9.9768 72.0269)" fill="#8D6F64" width="59.999" height="6.667"/>
<rect x="10" y="83.334" fill="#8D6F64" width="80" height="6.666"/>
<path fill="#E0E0E0" d="M37.153,83.334c0.383-1.323,0.719-2.656,0.993-4h-11.22c1.084,1.396,2.255,2.724,3.484,4H37.153z"/>
<path fill="#616262" d="M30.41,83.334c-1.229-1.276-2.4-2.604-3.484-4h-8.13c0.893,1.382,1.849,2.711,2.847,4H30.41z"/>
<path fill="#616262" d="M44.046,83.334c0.335-1.32,0.629-2.652,0.871-4h-6.771c-0.274,1.344-0.609,2.677-0.993,4H44.046z"/>
<path fill="#568B3F" d="M73.359,26.642c9.7,0.52,17.143-6.914,16.611-16.615C80.271,9.499,72.831,16.935,73.359,26.642z"/>
<path fill="#F1F7E9" d="M63.023,43.028c-7.034-0.957-13.335-4.109-18.073-9.109c-4.366-4.609-7.1-10.475-7.976-16.946
	c7.028,0.95,13.328,4.094,18.065,9.094C59.408,30.677,62.146,36.55,63.023,43.028z"/>
<path fill="#F1F7E9" d="M70.904,52.43c0.814-2.572,2.164-4.897,4.008-6.843c2.06-2.182,4.632-3.764,7.516-4.682
	c-0.813,2.578-2.167,4.909-4.011,6.855C76.354,49.936,73.786,51.518,70.904,52.43z"/>
<path fill="#568B3F" d="M70.904,52.43c0.672-2.125,1.716-4.076,3.096-5.788v-8.974c-1.463,0.996-2.797,2.154-4,3.437v18.411
	c1.381-0.265,2.719-0.633,4-1.104v-7.285C73.019,51.652,71.984,52.088,70.904,52.43z"/>
</svg>
