<?xml version="1.0" encoding="utf-8"?>
<!-- Generator: Adobe Illustrator 16.0.0, SVG Export Plug-In . SVG Version: 6.00 Build 0)  -->
<!DOCTYPE svg PUBLIC "-//W3C//DTD SVG 1.0//EN" "http://www.w3.org/TR/2001/REC-SVG-20010904/DTD/svg10.dtd">
<svg version="1.0" id="Layer_1" xmlns="http://www.w3.org/2000/svg" xmlns:xlink="http://www.w3.org/1999/xlink" x="0px" y="0px"
	 width="100px" height="100px" viewBox="0 0 100 100" enable-background="new 0 0 100 100" xml:space="preserve">
<path fill="#9D9D9D" d="M73.333,72.188c5.521,0,10-4.474,10-10.002h-6.667c0,1.843-1.494,3.335-3.333,3.335
	s-3.335-1.492-3.335-3.335v9.421C71.044,71.977,72.162,72.188,73.333,72.188z"/>
<path fill="#9D9D9D" d="M86.094,46.094C88.612,43.574,90,40.228,90,36.667c0-7.364-5.971-13.333-13.334-13.333
	c-7.364,0-13.333,5.969-13.333,13.333h6.665c0-3.685,2.986-6.667,6.668-6.667c3.683,0,6.667,2.983,6.667,6.667
	c0,1.836-0.745,3.503-1.953,4.713L69.998,52.76v9.426C69.995,62.186,86.094,46.094,86.094,46.094z"/>
<polygon fill="#455A64" points="26.666,36.667 26.666,66.001 16.151,40.768 10,43.333 26.666,83.333 26.666,90 69.998,90 
	69.998,36.667 "/>
<polygon fill="#263238" points="26.666,66 22.666,56.4 22.666,73.731 26.666,83.333 "/>
<path fill="#616262" d="M73.333,72.188c0.225,0,0.445-0.019,0.665-0.034v-6.7c-0.214,0.044-0.438,0.067-0.665,0.067
	c-1.839,0-3.335-1.492-3.335-3.335v9.421C71.044,71.977,72.162,72.188,73.333,72.188z"/>
<path fill="#616262" d="M73.998,48.76l-4,4v9.426c0,0,1.705-1.704,4-4.001V48.76z"/>
<rect x="33.333" y="43.333" fill="#CFD8DB" width="30" height="40"/>
<rect x="45.999" y="36.667" fill="#263238" width="4" height="6.667"/>
<path fill="#9D9D9D" d="M49.999,50h6.667V36.667c0-14.727-4.476-26.667-10-26.667c-5.521,0-10,11.94-10,26.667h6.667
	c0-8.958,1.791-15.41,3.333-18.49c1.543,3.08,3.333,9.531,3.333,18.49V50z"/>
<path fill="#616262" d="M43.46,32.667h-6.681c-0.074,1.305-0.112,2.641-0.112,4h6.667C43.333,35.269,43.38,33.939,43.46,32.667z"/>
</svg>
