<?xml version="1.0" encoding="utf-8"?>
<!-- Generator: Adobe Illustrator 16.0.0, SVG Export Plug-In . SVG Version: 6.00 Build 0)  -->
<!DOCTYPE svg PUBLIC "-//W3C//DTD SVG 1.0//EN" "http://www.w3.org/TR/2001/REC-SVG-20010904/DTD/svg10.dtd">
<svg version="1.0" id="Layer_1" xmlns="http://www.w3.org/2000/svg" xmlns:xlink="http://www.w3.org/1999/xlink" x="0px" y="0px"
	 width="100px" height="100px" viewBox="0 0 100 100" enable-background="new 0 0 100 100" xml:space="preserve">
<path fill="#8D6F64" d="M90,63.334v-6.668h-6.667v-6.665L80,46.667l-3.333,3.334v6.665H70v-6.665l-3.333-3.334l-3.333,3.334v6.665
	h-6.667v-6.665l-3.334-3.334l-3.334,3.334v6.665h-6.667v-6.665l-3.333-3.334l-3.332,3.334v6.665h-6.667v-6.665l-3.333-3.334
	l-3.333,3.334v6.665h-6.667v-6.665l-3.333-3.334L10,50.001v39.998h6.667v-6.667h6.667v6.667h6.666v-6.667h6.667v6.667h6.666v-6.667
	h6.667v6.667h6.668v-6.667h6.667v6.667H70v-6.667h6.667v6.667h6.666v-6.667H90v-6.666h-6.667V63.334H90z M16.667,76.666V63.334
	h6.667v13.332H16.667z M29.999,76.666V63.334h6.667v13.332H29.999z M43.332,76.666V63.334h6.667v13.332H43.332z M56.667,76.666
	V63.334h6.667v13.332H56.667z M76.667,76.666H70V63.334h6.667V76.666z"/>
<rect x="16.667" y="56.666" fill="#6D4D41" width="4" height="6.668"/>
<rect x="16.667" y="76.665" fill="#6D4D41" width="4" height="6.667"/>
<rect x="29.999" y="56.666" fill="#6D4D41" width="4" height="6.668"/>
<rect x="29.999" y="76.665" fill="#6D4D41" width="4" height="6.667"/>
<rect x="43.332" y="56.666" fill="#6D4D41" width="4" height="6.668"/>
<rect x="43.332" y="76.665" fill="#6D4D41" width="4" height="6.667"/>
<rect x="56.667" y="56.666" fill="#6D4D41" width="4" height="6.668"/>
<rect x="56.667" y="76.665" fill="#6D4D41" width="4" height="6.667"/>
<rect x="70" y="56.666" fill="#6D4D41" width="4" height="6.668"/>
<rect x="70" y="76.665" fill="#6D4D41" width="4" height="6.667"/>
<rect x="83.333" y="56.666" fill="#6D4D41" width="4" height="6.668"/>
<rect x="83.333" y="76.665" fill="#6D4D41" width="4" height="6.667"/>
<path fill="#679E42" d="M70,40c0-11.048-8.958-19.999-20.001-19.999c-11.044,0-20,8.951-20,19.999h6.667
	c0-7.362,5.969-13.333,13.332-13.333c7.366,0,13.335,5.971,13.335,13.333H70z"/>
<path fill="#7CB342" d="M73.333,16.667c-5.247,0-9.921,2.432-12.975,6.223c1.918,1.164,3.626,2.642,5.051,4.361
	c1.825-2.378,4.69-3.917,7.924-3.917c5.521,0,10,4.48,10,10V40H90v-6.667C90,24.128,82.539,16.667,73.333,16.667z"/>
<path fill="#7CB342" d="M40.812,22.237c2.021-1.047,4.244-1.759,6.595-2.064c-3.434-6.07-9.936-10.172-17.407-10.172
	C18.956,10.001,10,18.952,10,30v10h6.667V30c0-7.362,5.97-13.333,13.332-13.333C34.461,16.667,38.395,18.87,40.812,22.237z"/>
<path fill="#568B3F" d="M40.797,22.245c2.026-1.052,4.255-1.767,6.612-2.071c-0.737-1.296-1.614-2.502-2.609-3.599
	c-2.458,0.545-4.775,1.468-6.888,2.706C39.025,20.106,39.987,21.117,40.797,22.245z"/>
<path fill="#568B3F" d="M65.416,27.259c0.816-1.061,1.829-1.962,3.001-2.627c-1.476-1.765-3.198-3.314-5.115-4.596
	c-1.095,0.827-2.081,1.788-2.942,2.854C62.281,24.056,63.99,25.537,65.416,27.259z"/>
<path fill="#F1F7E9" d="M40.812,22.237c-2.417-3.367-6.351-5.57-10.813-5.57c-7.362,0-13.332,5.971-13.332,13.333v9.999h13.332
	C30,32.266,34.391,25.565,40.812,22.237z"/>
<path fill="#F1F7E9" d="M49.999,26.667c-7.363,0-13.332,5.971-13.332,13.332h26.667C63.334,32.638,57.364,26.667,49.999,26.667z"/>
<path fill="#F1F7E9" d="M83.333,33.333c0-5.52-4.479-10-10-10c-3.233,0-6.099,1.539-7.924,3.917h-0.001
	C68.275,30.711,70,35.153,70,39.999h13.333V33.333z"/>
</svg>
