<?xml version="1.0" encoding="utf-8"?>
<!-- Generator: Adobe Illustrator 16.0.0, SVG Export Plug-In . SVG Version: 6.00 Build 0)  -->
<!DOCTYPE svg PUBLIC "-//W3C//DTD SVG 1.0//EN" "http://www.w3.org/TR/2001/REC-SVG-20010904/DTD/svg10.dtd">
<svg version="1.0" id="Layer_1" xmlns="http://www.w3.org/2000/svg" xmlns:xlink="http://www.w3.org/1999/xlink" x="0px" y="0px"
	 width="100px" height="100px" viewBox="0 0 100 100" enable-background="new 0 0 100 100" xml:space="preserve">
<path fill="#455A64" d="M90,66.666c0-5.526-4.479-10-10-10h-3.914c0.369-1.043,0.581-2.162,0.581-3.332
	c0-5.529-4.479-10.002-10-10.002H38.333c-6.442,0-11.667-5.221-11.667-11.667s5.225-11.667,11.667-11.667h28.333v-6.667H38.333
	C28.212,13.332,20,21.535,20,31.666c0,4.556,1.667,8.722,4.42,11.929c-4.438,1.021-7.753,4.985-7.753,9.739
	c0,1.305,0.258,2.547,0.713,3.69C13.132,58.178,10,62.049,10,66.666c0,2.564,0.974,4.896,2.562,6.666
	C10.974,75.102,10,77.434,10,80.001c0,5.521,4.479,10,10,10h60c5.521,0,10-4.479,10-10c0-2.567-0.975-4.899-2.563-6.669
	C89.025,71.562,90,69.23,90,66.666z"/>
<path fill="#263238" d="M26.667,43.332h11.667c-3.504,0-6.641-1.552-8.78-4h-2.887c-1.612,0-3.154,0.288-4.597,0.792
	c0.651,1.25,1.45,2.409,2.359,3.469C25.15,43.427,25.897,43.332,26.667,43.332z"/>
<path fill="#CFD8DB" d="M26.667,56.666c-1.837,0-3.333-1.496-3.333-3.332c0-1.843,1.496-3.335,3.333-3.335h40
	c1.839,0,3.333,1.492,3.333,3.335c0,1.836-1.494,3.332-3.333,3.332H26.667z"/>
<path fill="#263238" d="M76.667,53.334c0-0.226-0.019-0.445-0.034-0.668h-6.7C69.977,52.882,70,53.104,70,53.334
	c0,1.836-1.494,3.332-3.333,3.332h9.419C76.455,55.623,76.667,54.504,76.667,53.334z"/>
<path fill="#263238" d="M20,56.666h6.667c-1.837,0-3.333-1.496-3.333-3.332c0-0.23,0.023-0.452,0.067-0.668H20
	c-1.146,0-2.254,0.153-3.32,0.414c-0.002,0.085-0.013,0.168-0.013,0.254c0,1.305,0.258,2.547,0.713,3.69
	C18.216,56.798,19.092,56.666,20,56.666z"/>
<path fill="#CFD8DB" d="M20,70.001c-1.837,0-3.333-1.499-3.333-3.335c0-1.842,1.496-3.332,3.333-3.332h60
	c1.839,0,3.333,1.49,3.333,3.332c0,1.836-1.494,3.335-3.333,3.335H20z"/>
<polygon fill="#FFC00E" points="73.333,13.332 73.333,9.999 66.667,9.999 66.667,23.332 73.333,23.332 73.333,19.999 83.333,18.332 
	83.333,14.999 "/>
<polygon fill="#F68E1E" points="77.333,13.999 73.333,13.332 73.333,19.999 77.333,19.333 "/>
<path fill="#478ECC" d="M83.588,27.056c-0.163,0.391-0.255,0.827-0.255,1.276c0,1.843,1.49,3.333,3.334,3.333
	c1.843,0,3.333-1.491,3.333-3.333c0-0.449-0.091-0.885-0.255-1.276c0.005,0-3.075-7.057-3.075-7.057L83.588,27.056z"/>
<path fill="#478ECC" d="M83.588,48.723c-0.163,0.391-0.255,0.827-0.255,1.276c0,1.844,1.49,3.335,3.334,3.335
	c1.843,0,3.333-1.491,3.333-3.335c0-0.449-0.091-0.886-0.255-1.276c0.005,0-3.075-7.057-3.075-7.057L83.588,48.723z"/>
<path fill="#478ECC" d="M76.92,38.723c-0.162,0.391-0.253,0.827-0.253,1.276c0,1.842,1.491,3.333,3.333,3.333
	s3.333-1.491,3.333-3.333c0-0.449-0.091-0.886-0.253-1.276c0.003,0-3.077-7.057-3.077-7.057L76.92,38.723z"/>
<path fill="#CFD8DB" d="M20,83.334c-1.837,0-3.333-1.497-3.333-3.333c0-1.844,1.496-3.335,3.333-3.335h60
	c1.839,0,3.333,1.491,3.333,3.335c0,1.836-1.494,3.333-3.333,3.333H20z"/>
<path fill="#263238" d="M87.439,73.332c0.918-1.025,1.634-2.237,2.068-3.578c-1.722-1.6-3.847-2.763-6.2-3.339
	c0.007,0.084,0.025,0.165,0.025,0.251c0,1.836-1.494,3.335-3.333,3.335C82.958,70.001,85.607,71.291,87.439,73.332z"/>
<path fill="#263238" d="M20,70.001c-1.837,0-3.333-1.499-3.333-3.335c0-0.086,0.019-0.167,0.025-0.251
	c-2.353,0.576-4.479,1.739-6.2,3.339c0.435,1.341,1.151,2.553,2.069,3.578C14.393,71.291,17.043,70.001,20,70.001z"/>
</svg>
