<?xml version="1.0" encoding="utf-8"?>
<!-- Generator: Adobe Illustrator 16.0.0, SVG Export Plug-In . SVG Version: 6.00 Build 0)  -->
<!DOCTYPE svg PUBLIC "-//W3C//DTD SVG 1.0//EN" "http://www.w3.org/TR/2001/REC-SVG-20010904/DTD/svg10.dtd">
<svg version="1.0" id="Layer_1" xmlns="http://www.w3.org/2000/svg" xmlns:xlink="http://www.w3.org/1999/xlink" x="0px" y="0px"
	 width="100px" height="100px" viewBox="0 0 100 100" enable-background="new 0 0 100 100" xml:space="preserve">
<path fill="#455A64" d="M33.333,30.003v13.332l-8-10.666c-1.102-1.469-3.5-2.668-5.332-2.668h-3.333v-3.332
	c0-3.683-2.985-6.668-6.666-6.668v26.667c3.681,0,6.666-2.985,6.666-6.667v-3.355l3.311-0.009l13.354,17.811v28.886
	C33.333,86.998,36.334,90,40,90h29.999c3.664,0,6.666-3.002,6.666-6.667V30.001L33.333,30.003z"/>
<polygon fill="#263238" points="29.333,49.112 33.333,54.447 33.333,43.334 29.333,38.001 "/>
<path fill="#BDBCBC" d="M49.999,30.003v-6.669C49.999,15.97,55.97,10,63.33,10l13.33,0.002c7.362,0,13.334,5.971,13.334,13.333
	L89.998,50c0,7.364-5.971,13.333-13.333,13.333v-6.666c3.683,0,6.665-2.984,6.665-6.667l-0.001-26.665
	c0-3.681-2.984-6.666-6.669-6.666l-13.33-0.004c-3.681,0-6.665,2.984-6.665,6.666v6.67L49.999,30.003z"/>
<path fill="#767676" d="M80.665,55.325c-1.116,0.839-2.497,1.342-4,1.342v6.666c1.394,0,2.735-0.216,4-0.612V55.325z"/>
<rect x="49.999" y="26.001" fill="#767676" width="6.666" height="4"/>
<rect x="40" y="36.669" fill="#CFD8DB" width="29.999" height="46.664"/>
</svg>
