<?xml version="1.0" encoding="utf-8"?>
<!-- Generator: Adobe Illustrator 16.0.0, SVG Export Plug-In . SVG Version: 6.00 Build 0)  -->
<!DOCTYPE svg PUBLIC "-//W3C//DTD SVG 1.0//EN" "http://www.w3.org/TR/2001/REC-SVG-20010904/DTD/svg10.dtd">
<svg version="1.0" id="Layer_1" xmlns="http://www.w3.org/2000/svg" xmlns:xlink="http://www.w3.org/1999/xlink" x="0px" y="0px"
	 width="100px" height="100px" viewBox="0 0 100 100" enable-background="new 0 0 100 100" xml:space="preserve">
<path fill="#8D6F64" d="M49.644,21.874c-0.973,2.563-3.897,4.777-7.974,6.245l-1.977,10.393C37.353,39.329,34.087,40,30,40
	s-7.352-0.671-9.693-1.488l-1.977-10.394c-4.078-1.469-7.004-3.686-7.976-6.25l1.93,10.156C10.827,33.412,10,34.989,10,36.663v0.006
	c0,0.619,0.127,1.218,0.342,1.807l1.944,10.218C10.828,50.08,10,51.654,10,53.33v0.006c0,0.615,0.127,1.217,0.342,1.807l6.083,32
	C18.353,88.32,22.864,90,30,90c7.129,0,11.647-1.68,13.568-2.857l6.087-31.997c0.215-0.589,0.346-1.19,0.346-1.81V53.33
	c0-1.674-0.829-3.25-2.289-4.636l1.943-10.215c0.215-0.589,0.346-1.191,0.346-1.81v-0.006c0-1.674-0.832-3.247-2.291-4.631
	L49.644,21.874z M37.686,82.396c-1.761,0.495-4.346,0.938-7.686,0.938s-5.924-0.442-7.688-0.938l-3.984-20.953
	c3.288,1.185,7.311,1.891,11.673,1.891c4.362,0,8.386-0.706,11.67-1.891L37.686,82.396z M39.69,55.179
	c-2.34,0.816-5.604,1.487-9.69,1.487c-4.09,0-7.355-0.672-9.697-1.489l-1.976-10.401c3.288,1.184,7.311,1.891,11.673,1.891
	c4.362,0,8.386-0.707,11.67-1.891L39.69,55.179z"/>
<polygon fill="#8D6F64" points="10,20 10,20 10,20.001 "/>
<polygon fill="#8D6F64" points="50,20.001 50.001,20 50,20 "/>
<path fill="#6D4D41" d="M90,43.331c0,5.523-8.951,10.002-20,10.002c-11.042,0-19.999-4.479-19.999-10.002
	c0-5.521,8.957-9.997,19.999-9.997C81.049,33.333,90,37.81,90,43.331z"/>
<path fill="#EEEAE8" d="M70,46.667c-7.122,0-11.764-2.038-13.333-3.336C58.236,42.034,62.878,40,70,40
	c7.13,0,11.764,2.038,13.333,3.331C81.764,44.629,77.13,46.667,70,46.667z"/>
<path fill="#EEEAE8" d="M70,53.333c-4.356,0-8.385-0.699-11.67-1.883l3.98,20.945c1.765,0.495,4.351,0.938,7.689,0.938
	c3.341,0,5.925-0.442,7.689-0.938l3.98-20.944C78.386,52.635,74.357,53.333,70,53.333z"/>
<path fill="#6D4D41" d="M50.001,19.997C50.001,25.521,41.048,30,30,30c-11.044,0-20-4.479-20-10.003C10,14.476,18.956,10,30,10
	C41.048,10,50.001,14.476,50.001,19.997z"/>
<path fill="#EEEAE8" d="M30,23.333c-7.125,0-11.764-2.038-13.333-3.336c1.569-1.296,6.208-3.331,13.333-3.331
	c7.126,0,11.764,2.038,13.333,3.331C41.764,21.295,37.126,23.333,30,23.333z"/>
<path fill="#EEEAE8" d="M22.312,82.396c1.764,0.495,4.349,0.938,7.688,0.938s5.925-0.442,7.686-0.938l3.984-20.953
	c-3.285,1.185-7.308,1.891-11.67,1.891c-4.362,0-8.385-0.706-11.673-1.891L22.312,82.396z"/>
<path fill="#EEEAE8" d="M39.69,55.179l1.98-10.403c-3.285,1.184-7.308,1.891-11.67,1.891c-4.362,0-8.385-0.707-11.673-1.891
	l1.976,10.401c2.341,0.817,5.607,1.489,9.697,1.489C34.086,56.666,37.35,55.995,39.69,55.179z"/>
<polygon fill="#8D6F64" points="50.001,43.333 50.001,43.333 50.001,43.334 "/>
<path fill="#8D6F64" d="M81.67,51.451l-3.98,20.944c-1.765,0.495-4.349,0.938-7.689,0.938c-3.339,0-5.925-0.442-7.689-0.938
	L58.33,51.45c-4.077-1.469-7.002-3.685-7.974-6.248l6.07,31.94C58.354,78.32,62.864,80,70,80c7.13,0,11.646-1.68,13.567-2.857
	l6.076-31.937C88.672,47.769,85.747,49.983,81.67,51.451z"/>
<polygon fill="#8D6F64" points="90,43.334 90,43.333 90,43.333 "/>
<path fill="#EEEAE8" d="M30,30c-4.356,0-8.384-0.699-11.669-1.882l1.977,10.394C22.648,39.329,25.913,40,30,40
	s7.353-0.671,9.693-1.488l1.977-10.393C38.385,29.301,34.357,30,30,30z"/>
<path fill="#D7CCC8" d="M58.33,51.45l3.98,20.945c1.143,0.321,2.636,0.617,4.449,0.787l-3.898-20.509
	C61.238,52.363,59.719,51.95,58.33,51.45z"/>
<path fill="#D7CCC8" d="M22.757,62.644c-1.582-0.31-3.072-0.711-4.43-1.201l3.984,20.953c1.122,0.315,2.58,0.607,4.35,0.779
	L22.757,62.644z"/>
<path fill="#D7CCC8" d="M22.862,45.997c-1.621-0.313-3.146-0.721-4.535-1.221l1.976,10.401c1.245,0.435,2.759,0.825,4.512,1.098
	L22.862,45.997z"/>
<path fill="#D7CCC8" d="M22.865,29.335c-1.621-0.31-3.147-0.717-4.534-1.217l1.977,10.394c1.245,0.435,2.759,0.824,4.512,1.097
	L22.865,29.335z"/>
</svg>
