<?xml version="1.0" encoding="utf-8"?>
<!-- Generator: Adobe Illustrator 16.0.0, SVG Export Plug-In . SVG Version: 6.00 Build 0)  -->
<!DOCTYPE svg PUBLIC "-//W3C//DTD SVG 1.0//EN" "http://www.w3.org/TR/2001/REC-SVG-20010904/DTD/svg10.dtd">
<svg version="1.0" id="Layer_1" xmlns="http://www.w3.org/2000/svg" xmlns:xlink="http://www.w3.org/1999/xlink" x="0px" y="0px"
	 width="100px" height="100px" viewBox="0 0 100 100" enable-background="new 0 0 100 100" xml:space="preserve">
<path fill="#BDBCBC" d="M63.333,23.334V10.002H16.667v13.333c-8.888,14.72-8.888,38.606,0,53.333v13.331h46.667V76.667
	C72.222,61.94,72.222,38.055,63.333,23.334z M23.333,16.668h33.333v6.666H23.333V16.668z M56.666,83.334H23.333v-6.667h33.333
	V83.334z"/>
<rect x="16.667" y="76.667" fill="#767676" width="6.666" height="4"/>
<rect x="56.666" y="76.667" fill="#767676" width="6.667" height="4"/>
<rect x="23.333" y="76.667" fill="#F4F5F5" width="33.333" height="6.667"/>
<rect x="23.333" y="16.668" fill="#F4F5F5" width="33.333" height="6.666"/>
<path fill="#F4F5F5" d="M20.676,70c-5.336-11.635-5.336-28.371,0-39.998h38.646c5.339,11.627,5.339,28.363,0,39.998H20.676z"/>
<path fill="#7CB342" d="M39.988,63.318c0.337-9.529-7.114-16.976-16.644-16.644C23.012,56.205,30.46,63.653,39.988,63.318z"/>
<path fill="#568B3F" d="M36.005,62.987c1.273,0.261,2.605,0.38,3.983,0.331c0.117-3.316-0.711-6.381-2.24-8.953
	C36.563,57.021,35.964,59.945,36.005,62.987z"/>
<path fill="#7CB342" d="M56.656,46.674c-9.533-0.338-16.983,7.115-16.649,16.644C49.536,63.653,56.987,56.205,56.656,46.674z"/>
<circle fill="#FFC00E" cx="40" cy="41.668" r="5"/>
<path fill="#455A64" d="M76.665,55c0,2.461,1.293,5.138,3.333,6.667c2.042-1.529,3.334-4.206,3.334-6.667
	c0-1.842-1.493-3.334-3.334-3.334C78.159,51.666,76.665,53.158,76.665,55z"/>
<path fill="#455A64" d="M90,26.668c0-2.467-1.294-5.143-3.335-6.666c-2.04,1.523-3.333,4.199-3.333,6.666
	c0,1.836,1.494,3.334,3.333,3.334S90,28.504,90,26.668z"/>
<path fill="#455A64" d="M74.31,35.691c1.745,1.738,4.55,2.721,7.07,2.356c0.363-2.526-0.613-5.332-2.356-7.07
	c-1.297-1.302-3.413-1.302-4.714,0C73.008,32.273,73.008,34.389,74.31,35.691z"/>
<path fill="#455A64" d="M75.688,22.358c1.742-1.738,2.723-4.543,2.356-7.07c-2.521-0.364-5.328,0.613-7.068,2.357
	c-1.304,1.302-1.304,3.412,0,4.713C72.274,23.661,74.391,23.661,75.688,22.358z"/>
<path fill="#455A64" d="M87.566,47.143c1.742-1.738,2.723-4.544,2.358-7.07c-2.523-0.365-5.33,0.619-7.07,2.357
	c-1.303,1.302-1.303,3.418,0,4.713C84.152,48.445,86.269,48.445,87.566,47.143z"/>
</svg>
