<?xml version="1.0" encoding="utf-8"?>
<!-- Generator: Adobe Illustrator 16.0.0, SVG Export Plug-In . SVG Version: 6.00 Build 0)  -->
<!DOCTYPE svg PUBLIC "-//W3C//DTD SVG 1.0//EN" "http://www.w3.org/TR/2001/REC-SVG-20010904/DTD/svg10.dtd">
<svg version="1.0" id="Layer_1" xmlns="http://www.w3.org/2000/svg" xmlns:xlink="http://www.w3.org/1999/xlink" x="0px" y="0px"
	 width="100px" height="100px" viewBox="0 0 100 100" enable-background="new 0 0 100 100" xml:space="preserve">
<path fill="#8D6F64" d="M83.333,49.999c0,18.406-14.922,33.335-33.333,33.335c-18.412,0-33.334-14.929-33.334-33.335H10
	c0,22.091,17.903,40.002,40,40.002c22.088,0,40-17.911,40-40.002H83.333z"/>
<path fill="#8D6F64" d="M30,49.999h6.667c0,7.358,5.966,13.335,13.334,13.335c7.362,0,13.333-5.977,13.333-13.335H70
	c0,11.042-8.953,20.002-20,20.002C38.952,70.001,30,61.041,30,49.999z"/>
<path fill="#EEEAE8" d="M30,49.999c0,11.042,8.952,20.002,20,20.002c11.046,0,20-8.96,20-20.002h13.333
	c0,18.406-14.922,33.335-33.333,33.335c-18.412,0-33.334-14.929-33.334-33.335H30z"/>
<path fill="#478ECC" d="M85.286,26.666L80,31.952V10h-6.667v21.953l-5.286-5.286l-4.714,4.713L74.31,42.356
	c1.302,1.302,3.411,1.302,4.714,0L90,31.379L85.286,26.666z"/>
<polygon fill="#3374B9" points="76.666,35.286 80,31.952 80,26.295 76.666,29.628 73.333,26.296 73.333,31.952 "/>
<path fill="#478ECC" d="M36.667,21.953L25.69,10.976c-1.302-1.302-3.412-1.302-4.713,0L10,21.946l4.713,4.72L20,21.379v21.953h6.667
	V21.38l5.287,5.286L36.667,21.953z"/>
<polygon fill="#3374B9" points="23.333,18.046 20,21.379 20,27.036 23.333,23.704 26.667,27.036 26.667,21.38 "/>
</svg>
