<?xml version="1.0" encoding="utf-8"?>
<!-- Generator: Adobe Illustrator 16.0.0, SVG Export Plug-In . SVG Version: 6.00 Build 0)  -->
<!DOCTYPE svg PUBLIC "-//W3C//DTD SVG 1.0//EN" "http://www.w3.org/TR/2001/REC-SVG-20010904/DTD/svg10.dtd">
<svg version="1.0" id="Layer_1" xmlns="http://www.w3.org/2000/svg" xmlns:xlink="http://www.w3.org/1999/xlink" x="0px" y="0px"
	 width="100px" height="100px" viewBox="0 0 100 100" enable-background="new 0 0 100 100" xml:space="preserve">
<path fill="#7CB342" d="M80,76.665c-1.17,0-2.289-0.211-3.333-0.581v4.709c-2.427-2.654-5.972-4.258-9.989-4.119
	c-0.268,7.627,5.692,13.583,13.316,13.317L80,89.998h3.334V76.084C82.289,76.454,81.17,76.665,80,76.665z"/>
<path fill="#7CB342" d="M53.334,76.665c-1.17,0-2.289-0.211-3.333-0.581v4.709c-2.426-2.654-5.972-4.258-9.99-4.119
	c-0.267,7.627,5.693,13.583,13.316,13.317l0.006,0.007h3.334V76.084C55.623,76.454,54.505,76.665,53.334,76.665z"/>
<path fill="#7CB342" d="M26.669,76.665c-1.17,0-2.289-0.211-3.333-0.581v4.709c-2.427-2.654-5.973-4.258-9.99-4.119
	c-0.267,7.627,5.69,13.583,13.316,13.317l0.006,0.007h3.333V76.084C28.958,76.454,27.84,76.665,26.669,76.665z"/>
<path fill="#455A64" d="M66.664,20c-4.244,0-8.675,2.571-10.774,6.252L50,36.56L50.005,10H23.336v0.006L23.333,10h-8.334
	C12.249,10,10,12.25,10,15v3.333c0,2.751,1.005,7.012,2.236,9.473l11.1,22.192h26.662l11.68-20.438
	c0.907-1.593,3.153-2.894,4.986-2.894h3.333V20H66.664z M18.199,24.825c-0.774-1.547-1.533-4.762-1.533-6.491v-1.667h6.667
	l0.003-0.008v18.439L18.199,24.825z"/>
<rect x="83.334" y="46.667" fill="#478ECC" width="6.666" height="6.665"/>
<polygon fill="#263238" points="50,36.561 49.998,49.999 53.998,42.998 54.002,29.558 "/>
<polygon fill="#CFD8DB" points="29.999,43.333 29.999,16.667 43.331,16.673 43.335,43.327 "/>
<path fill="#478ECC" d="M76.667,26.667c3.685,0,6.667,2.984,6.667,6.667V40H90v-6.667C90,25.971,84.029,20,76.667,20V26.667z"/>
<path fill="#E53A34" d="M70.001,66.665c0,5.521,4.479,10,9.999,10c5.525,0,10-4.479,10-10s-4.475-10-10-10
	C74.479,56.665,70.001,61.145,70.001,66.665z"/>
<circle fill="#FCEAED" cx="80" cy="66.665" r="3.333"/>
<circle fill="#E53A34" cx="53.334" cy="66.665" r="10"/>
<circle fill="#FCEAED" cx="53.335" cy="66.665" r="3.333"/>
<path fill="#568B3F" d="M23.336,80.798c-1.118-1.219-2.47-2.219-4-2.927v10.216c1.207,0.743,2.555,1.286,4,1.602V80.798z"/>
<path fill="#568B3F" d="M50.001,80.798c-1.119-1.219-2.469-2.219-4-2.927v10.216c1.207,0.743,2.555,1.286,4,1.602V80.798z"/>
<path fill="#568B3F" d="M76.667,80.798c-1.118-1.219-2.47-2.219-4-2.927v10.216c1.206,0.743,2.555,1.286,4,1.602V80.798z"/>
<circle fill="#E53A34" cx="26.668" cy="66.665" r="10.001"/>
<circle fill="#FCEAED" cx="26.669" cy="66.665" r="3.333"/>
</svg>
