<?xml version="1.0" encoding="utf-8"?>
<!-- Generator: Adobe Illustrator 16.0.0, SVG Export Plug-In . SVG Version: 6.00 Build 0)  -->
<!DOCTYPE svg PUBLIC "-//W3C//DTD SVG 1.0//EN" "http://www.w3.org/TR/2001/REC-SVG-20010904/DTD/svg10.dtd">
<svg version="1.0" id="Layer_1" xmlns="http://www.w3.org/2000/svg" xmlns:xlink="http://www.w3.org/1999/xlink" x="0px" y="0px"
	 width="100px" height="100px" viewBox="0 0 100 100" enable-background="new 0 0 100 100" xml:space="preserve">
<path fill="#455A64" d="M84.225,32.271l2.356-2.356c4.555-4.557,4.558-11.94,0-16.497c-4.557-4.558-11.945-4.558-16.5,0
	l-2.356,2.357l-1.18-1.179c-2.594-2.591-6.836-2.591-9.426,0l-2.356,2.356l-4.713-4.712l-9.431,9.427l4.715,4.713l-2.357,2.357
	c-2.592,2.591-2.592,6.836,0,9.427L54.814,50H40v-5h-6.667v16.666H40v-5h21.482l0.352,0.352c2.59,2.592,6.836,2.598,9.426,0
	l14.145-14.14c2.592-2.591,2.592-6.836,0-9.427L84.225,32.271z M74.795,18.131c1.953-1.953,5.12-1.953,7.07,0
	c1.953,1.953,1.953,5.117,0,7.07l-2.356,2.355l-7.07-7.069L74.795,18.131z"/>
<path fill="#263238" d="M72.438,20.488l2.356-2.356c0.159-0.161,0.331-0.303,0.507-0.438l-4.726-4.724
	c-0.165,0.148-0.336,0.289-0.495,0.448l-2.356,2.357L72.438,20.488z"/>
<path fill="#263238" d="M84.225,32.271l2.356-2.356c0.159-0.16,0.3-0.33,0.448-0.496l-4.727-4.726
	c-0.134,0.176-0.276,0.348-0.438,0.509l-2.356,2.355L84.225,32.271z"/>
<polygon fill="#263238" points="54.814,50 49.156,50 55.823,56.666 61.481,56.666 "/>
<polygon fill="#CFD8DB" points="66.545,52.311 47.692,33.45 61.833,19.31 80.688,38.164 "/>
<path fill="#478ECC" d="M26.666,56.666c-5.521,0-9.999,4.473-9.999,9.999V70H10v-3.335C10,57.461,17.462,50,26.666,50V56.666z"/>
<rect x="10" y="76.665" fill="#478ECC" width="6.667" height="13.335"/>
<rect x="21.667" y="66.665" fill="#478ECC" width="6.667" height="16.668"/>
<path fill="#7CB342" d="M49.242,82.214c2.797-5.016,1.94-11.338-2.579-15.549c-4.504,4.2-5.365,10.516-2.587,15.528
	c-2.415-3.339-6.308-5.528-10.743-5.528C33.333,84.029,39.302,90,46.667,90C54.029,90,60,84.029,60,76.665
	C55.557,76.665,51.656,78.864,49.242,82.214z"/>
<path fill="#568B3F" d="M46.667,78.979c-1.188-1.453-2.589-2.685-4.145-3.667c-0.226,3.659,1.144,7.389,4.141,10.181
	c3-2.795,4.371-6.523,4.146-10.18C49.254,76.295,47.854,77.528,46.667,78.979z"/>
<path fill="#7CB342" d="M79.242,82.214c2.795-5.016,1.938-11.338-2.58-15.549c-4.505,4.2-5.365,10.516-2.587,15.528
	c-2.414-3.339-6.309-5.528-10.742-5.528C63.333,84.029,69.302,90,76.665,90C84.029,90,90,84.029,90,76.665
	C85.555,76.665,81.654,78.864,79.242,82.214z"/>
<path fill="#568B3F" d="M76.665,78.979c-1.186-1.453-2.587-2.685-4.144-3.667c-0.225,3.659,1.144,7.389,4.141,10.181
	c3-2.795,4.372-6.523,4.147-10.18C79.253,76.295,77.853,77.528,76.665,78.979z"/>
</svg>
