<?xml version="1.0" encoding="utf-8"?>
<!-- Generator: Adobe Illustrator 16.0.0, SVG Export Plug-In . SVG Version: 6.00 Build 0)  -->
<!DOCTYPE svg PUBLIC "-//W3C//DTD SVG 1.0//EN" "http://www.w3.org/TR/2001/REC-SVG-20010904/DTD/svg10.dtd">
<svg version="1.0" id="Layer_1" xmlns="http://www.w3.org/2000/svg" xmlns:xlink="http://www.w3.org/1999/xlink" x="0px" y="0px"
	 width="100px" height="100px" viewBox="0 0 100 100" enable-background="new 0 0 100 100" xml:space="preserve">
<path fill="#BDBCBC" d="M60,10v26.667c0,3.685-2.987,6.667-6.667,6.667V10h-6.666v33.359l-0.006-0.026
	c-3.679,0-6.667-2.988-6.667-6.667H40V10h-6.667v26.667c0,7.357,5.964,13.334,13.327,13.334l0.006-0.027v6.692h6.666v-6.665
	c7.357,0,13.334-5.971,13.334-13.334V10H60z"/>
<path fill="#8D6F64" d="M60,80c0,5.521-4.479,10-10,10s-10-4.479-10-10V56.666h20V80z"/>
<path fill="#EEEAE8" d="M50,83.333c-1.835,0-3.333-1.497-3.333-3.333V63.333h6.666V80C53.333,81.836,51.836,83.333,50,83.333z"/>
<rect x="46.667" y="52.666" fill="#767676" width="6.666" height="4"/>
</svg>
