<?xml version="1.0" encoding="utf-8"?>
<!-- Generator: Adobe Illustrator 16.0.0, SVG Export Plug-In . SVG Version: 6.00 Build 0)  -->
<!DOCTYPE svg PUBLIC "-//W3C//DTD SVG 1.0//EN" "http://www.w3.org/TR/2001/REC-SVG-20010904/DTD/svg10.dtd">
<svg version="1.0" id="Layer_1" xmlns="http://www.w3.org/2000/svg" xmlns:xlink="http://www.w3.org/1999/xlink" x="0px" y="0px"
	 width="100px" height="100px" viewBox="0 0 100 100" enable-background="new 0 0 100 100" xml:space="preserve">
<path fill="#9D9D9D" d="M66.667,49.999c0,7.364-7.466,13.333-16.667,13.333c-9.206,0-16.667-5.969-16.667-13.333H10
	c0,18.413,17.91,33.334,40,33.334c22.091,0,40-14.921,40-33.334H66.667z M17.716,56.666h9.511
	c1.047,6.233,3.536,11.974,7.112,16.874C26.199,70.067,20.068,63.975,17.716,56.666z M50,76.666c-1.183,0-2.35-0.052-3.5-0.146
	c-3.342-2.546-6.196-5.697-8.378-9.307c3.48,1.77,7.539,2.786,11.877,2.786c10.157,0,18.796-5.564,22-13.333h10.282
	C78.583,68.166,65.531,76.666,50,76.666z"/>
<polygon fill="#8D6F64" points="78.334,44.96 81.862,49.999 90,49.999 81.665,38.093 81.665,16.667 75,16.667 75,38.096 
	66.667,49.999 74.805,49.999 "/>
<polygon fill="#8D6F64" points="21.666,44.96 25.195,49.999 33.333,49.999 25,38.095 25,16.667 18.333,16.667 18.333,38.094 
	10,49.999 18.138,49.999 "/>
<path fill="#616262" d="M59.083,82.457c4.495-0.874,8.703-2.369,12.477-4.386c-1.591,0.276-3.226,0.43-4.893,0.43
	c-3.909,0-7.634-0.793-11.029-2.224c-1.833,0.25-3.714,0.389-5.638,0.389c-1.203,0-2.383-0.07-3.552-0.17
	C50.131,79.312,54.419,81.371,59.083,82.457z"/>
<path fill="#616262" d="M46.119,69.72c-2.452-2.555-4.436-5.563-5.807-8.885c-4.219-2.42-6.979-6.365-6.979-10.836
	c0,6.291,1.745,12.172,4.772,17.192C40.53,68.426,43.231,69.304,46.119,69.72z"/>
<path fill="#F4F5F5" d="M34.339,73.54c-3.576-4.9-6.065-10.641-7.112-16.874h-9.511C20.068,63.975,26.199,70.067,34.339,73.54z"/>
<path fill="#F4F5F5" d="M50,69.999c-4.338,0-8.397-1.017-11.877-2.786c2.182,3.609,5.036,6.761,8.378,9.307
	c1.15,0.095,2.317,0.146,3.5,0.146c15.531,0,28.583-8.5,32.282-20H72C68.796,64.435,60.157,69.999,50,69.999z"/>
</svg>
