<?xml version="1.0" encoding="utf-8"?>
<!-- Generator: Adobe Illustrator 16.0.0, SVG Export Plug-In . SVG Version: 6.00 Build 0)  -->
<!DOCTYPE svg PUBLIC "-//W3C//DTD SVG 1.0//EN" "http://www.w3.org/TR/2001/REC-SVG-20010904/DTD/svg10.dtd">
<svg version="1.0" id="Layer_1" xmlns="http://www.w3.org/2000/svg" xmlns:xlink="http://www.w3.org/1999/xlink" x="0px" y="0px"
	 width="100px" height="100px" viewBox="0 0 100 100" enable-background="new 0 0 100 100" xml:space="preserve">
<path fill="#F68E1E" d="M65.49,40c0.966-9.32,3.283-18.553,6.965-27.454L66.295,10c-4.065,9.833-6.517,19.931-7.484,30H65.49z"/>
<path fill="#F68E1E" d="M58.825,60c1.006,10.356,3.547,20.469,7.497,30l6.159-2.552C68.794,78.55,66.469,69.318,65.497,60H58.825z"
	/>
<rect x="46.667" y="10" fill="#F68E1E" width="6.666" height="30"/>
<path fill="#F68E1E" d="M34.503,60c-0.965,9.32-3.284,18.553-6.964,27.455L33.698,90c4.066-9.833,6.518-19.932,7.485-30H34.503z"/>
<rect x="46.667" y="60" fill="#F68E1E" width="6.666" height="30"/>
<path fill="#F68E1E" d="M41.168,40c-1.007-10.355-3.548-20.468-7.496-30l-6.16,2.552C31.2,21.45,33.524,30.681,34.497,40H41.168z"/>
<rect x="26.667" y="46.667" fill="#6D4D41" width="46.666" height="6.666"/>
<path fill="#FFC00E" d="M59.381,40c0.453-9.595,1.608-19.181,3.471-28.724L56.31,10c-1.919,9.822-3.128,19.845-3.591,30H59.381z"/>
<path fill="#FFC00E" d="M71.422,40C73.307,30.729,77.826,21.891,85,14.714L80.286,10c-8.489,8.489-13.703,19.011-15.667,30H71.422z"
	/>
<path fill="#FFC00E" d="M28.577,60C26.695,69.271,22.175,78.109,15,85.286L19.714,90c8.486-8.489,13.7-19.011,15.664-30H28.577z"/>
<path fill="#FFC00E" d="M64.619,60c1.962,10.987,7.175,21.508,15.667,30L85,85.286C77.822,78.111,73.302,69.271,71.42,60H64.619z"/>
<path fill="#FFC00E" d="M47.209,40c-0.525-9.939-1.78-19.958-3.823-30l-6.53,1.328C38.79,20.843,40.018,30.413,40.543,40H47.209z"/>
<path fill="#FFC00E" d="M52.791,60c0.524,9.939,1.779,19.959,3.823,30l6.531-1.328C61.209,79.158,59.982,69.588,59.456,60H52.791z"
	/>
<path fill="#FFC00E" d="M40.619,60c-0.453,9.596-1.608,19.183-3.47,28.724L43.692,90c1.918-9.822,3.129-19.846,3.59-30H40.619z"/>
<path fill="#FFC00E" d="M35.379,40c-1.962-10.987-7.174-21.508-15.666-30L15,14.714C22.175,21.892,26.694,30.729,28.577,40H35.379z"
	/>
</svg>
