<?xml version="1.0" encoding="utf-8"?>
<!-- Generator: Adobe Illustrator 16.0.0, SVG Export Plug-In . SVG Version: 6.00 Build 0)  -->
<!DOCTYPE svg PUBLIC "-//W3C//DTD SVG 1.0//EN" "http://www.w3.org/TR/2001/REC-SVG-20010904/DTD/svg10.dtd">
<svg version="1.0" id="Layer_1" xmlns="http://www.w3.org/2000/svg" xmlns:xlink="http://www.w3.org/1999/xlink" x="0px" y="0px"
	 width="100px" height="100px" viewBox="0 0 100 100" enable-background="new 0 0 100 100" xml:space="preserve">
<path fill="#455A64" d="M69.093,54.511c-1.302-1.298-3.006-1.953-4.712-1.953H56.66c-0.396-5.157-4.701-9.224-9.96-9.224
	c-5.514,0-9.993,4.476-9.993,10c0,2.481,0.91,4.747,2.408,6.495l-5.454,5.456c-1.211,1.208-1.953,2.875-1.953,4.718V90h6.666V69.995
	l6.794-6.795c0.503,0.078,1.014,0.131,1.539,0.131c3.311,0,6.24-1.623,8.059-4.107h9.616l14.237,14.24l4.712-4.712L69.093,54.511z"
	/>
<path fill="#BDBCBC" d="M44.118,43.683l-24.52-24.523c-3.906,3.902-3.906,10.234,0,14.136l17.455,17.461
	C37.972,47.311,40.677,44.603,44.118,43.683z"/>
<path fill="#BDBCBC" d="M46.7,43.333c1.828,0,3.534,0.5,5.005,1.357V19.996c0-5.521-4.478-9.996-9.999-9.996v34.681
	C43.177,43.829,44.879,43.333,46.7,43.333z"/>
<path fill="#767676" d="M44.118,43.683l-3.121-3.122c-3.137,1.408-5.661,3.934-7.066,7.073l3.123,3.123
	C37.972,47.311,40.677,44.603,44.118,43.683z"/>
<path fill="#767676" d="M46.7,43.333c1.828,0,3.534,0.5,5.005,1.357v-4.416c-1.556-0.599-3.24-0.941-5.005-0.941
	c-1.761,0-3.44,0.341-4.993,0.938v4.41C43.177,43.829,44.879,43.333,46.7,43.333z"/>
<path fill="#263238" d="M60.66,52.558h-4c0.019,0.257,0.039,0.513,0.039,0.775c0,2.204-0.724,4.235-1.935,5.891h4.617
	c0.836-1.794,1.317-3.784,1.317-5.891C60.699,53.07,60.674,52.815,60.66,52.558z"/>
<path fill="#CFD8DB" d="M50.032,53.333c0,1.842-1.484,3.333-3.326,3.333c-1.842,0-3.333-1.491-3.333-3.333
	c0-1.839,1.491-3.333,3.333-3.333C48.548,50,50.032,51.49,50.032,53.333z"/>
</svg>
