<?xml version="1.0" encoding="utf-8"?>
<!-- Generator: Adobe Illustrator 16.0.0, SVG Export Plug-In . SVG Version: 6.00 Build 0)  -->
<!DOCTYPE svg PUBLIC "-//W3C//DTD SVG 1.0//EN" "http://www.w3.org/TR/2001/REC-SVG-20010904/DTD/svg10.dtd">
<svg version="1.0" id="Layer_1" xmlns="http://www.w3.org/2000/svg" xmlns:xlink="http://www.w3.org/1999/xlink" x="0px" y="0px"
	 width="100px" height="100px" viewBox="0 0 100 100" enable-background="new 0 0 100 100" xml:space="preserve">
<path fill="#455A64" d="M17.064,49.936l9.427-9.425l0.016,0.006l-0.01-0.009c2.605-2.604,6.824-2.604,9.428,0l23.573,23.564
	c2.606,2.609,2.606,6.829,0,9.434l-0.019-0.02l0.01,0.023l-9.424,9.423L17.064,49.936z"/>
<polygon fill="#CFD8DB" points="26.494,49.935 50.07,73.503 54.779,68.797 54.786,68.795 31.208,45.218 31.204,45.225 "/>
<polygon fill="#8D6F64" points="50.069,54.644 90,14.712 85.286,10 45.352,49.935 "/>
<rect x="45.792" y="48.874" transform="matrix(0.7073 0.7069 -0.7069 0.7073 50.3402 -19.8355)" fill="#6D4D41" width="6.665" height="4.003"/>
<rect x="29.746" y="71.35" transform="matrix(0.7073 -0.7069 0.7069 0.7073 -42.6239 46.4196)" fill="#9D9D9D" width="10.001" height="6.669"/>
<rect x="20.317" y="61.921" transform="matrix(0.7069 -0.7073 0.7073 0.7069 -38.7346 37.0327)" fill="#9D9D9D" width="10.002" height="6.668"/>
<rect x="39.18" y="80.776" transform="matrix(0.7073 -0.7069 0.7069 0.7073 -46.5285 55.8471)" fill="#9D9D9D" width="9.991" height="6.668"/>
<polygon fill="#9D9D9D" points="17.064,49.936 10,57.002 14.704,61.725 21.779,54.648 "/>
<rect x="16.007" y="50.374" transform="matrix(-0.707 0.7072 -0.7072 -0.707 68.7216 78.9422)" fill="#616262" width="4.002" height="6.666"/>
<rect x="42.961" y="79.991" transform="matrix(-0.7073 -0.7069 0.7069 -0.7073 21.076 172.7082)" fill="#616262" width="6.665" height="4"/>
<rect x="25.437" y="59.8" transform="matrix(-0.707 0.7072 -0.7072 -0.707 91.4839 88.371)" fill="#616262" width="4.002" height="6.67"/>
<rect x="33.532" y="70.563" transform="matrix(-0.7072 -0.707 0.707 -0.7072 11.6324 149.9436)" fill="#616262" width="6.667" height="4"/>
</svg>
