<?xml version="1.0" encoding="utf-8"?>
<!-- Generator: Adobe Illustrator 16.0.0, SVG Export Plug-In . SVG Version: 6.00 Build 0)  -->
<!DOCTYPE svg PUBLIC "-//W3C//DTD SVG 1.0//EN" "http://www.w3.org/TR/2001/REC-SVG-20010904/DTD/svg10.dtd">
<svg version="1.0" id="Layer_1" xmlns="http://www.w3.org/2000/svg" xmlns:xlink="http://www.w3.org/1999/xlink" x="0px" y="0px"
	 width="100px" height="100px" viewBox="0 0 100 100" enable-background="new 0 0 100 100" xml:space="preserve">
<polygon fill="#8D6F64" points="88.268,61.058 90.001,54.615 48.106,43.392 48.11,43.398 14.714,10 10,14.713 43.392,48.106 
	54.616,90 61.056,88.271 52.819,57.536 52.814,57.528 72.306,77.021 77.018,72.308 57.525,52.814 57.532,52.818 "/>
<rect x="38.57" y="61.903" transform="matrix(0.7071 -0.7071 0.7071 0.7071 -27.0216 65.2382)" fill="#455A64" width="53.33" height="6.666"/>
<polygon fill="#6D4D41" points="52.623,82.561 53.818,87.023 59.262,81.58 58.066,77.117 "/>
<rect x="67.006" y="65.675" transform="matrix(-0.7071 -0.7071 0.7071 -0.7071 69.004 166.597)" fill="#6D4D41" width="4" height="6.665"/>
<polygon fill="#6D4D41" points="82.561,52.622 77.115,58.067 81.576,59.264 87.021,53.817 "/>
</svg>
