<?xml version="1.0" encoding="utf-8"?>
<!-- Generator: Adobe Illustrator 16.0.0, SVG Export Plug-In . SVG Version: 6.00 Build 0)  -->
<!DOCTYPE svg PUBLIC "-//W3C//DTD SVG 1.0//EN" "http://www.w3.org/TR/2001/REC-SVG-20010904/DTD/svg10.dtd">
<svg version="1.0" id="Layer_1" xmlns="http://www.w3.org/2000/svg" xmlns:xlink="http://www.w3.org/1999/xlink" x="0px" y="0px"
	 width="100px" height="100px" viewBox="0 0 100 100" enable-background="new 0 0 100 100" xml:space="preserve">
<path fill="#BDBCBC" d="M76.666,10.259C53.295,12.034,32.263,23.061,16.667,40c15.595-3.763,36.63-6.208,59.999-6.604V10.259z"/>
<path fill="#F4F5F5" d="M40.019,29.151c11.167-6.966,23.627-11.146,36.647-12.211v9.782C63.782,26.934,51.374,27.763,40.019,29.151z
	"/>
<path fill="#E0E0E0" d="M72.666,26.812c1.33-0.035,2.661-0.068,4-0.09V16.94c-1.339,0.109-2.672,0.26-4,0.435V26.812z"/>
<polygon fill="#8D6F64" points="76.666,10 76.666,50 66.666,50 66.666,56.666 76.666,56.666 76.666,90 83.334,90 83.334,10 "/>
<path fill="#767676" d="M76.666,10.267c-1.34,0.104-2.675,0.228-4,0.389v6.719c1.328-0.175,2.661-0.326,4-0.435V10.267z"/>
<path fill="#767676" d="M76.666,26.722c-1.339,0.022-2.67,0.055-4,0.09v6.671c1.324-0.036,2.663-0.06,4-0.083V26.722z"/>
</svg>
