<?xml version="1.0" encoding="utf-8"?>
<!-- Generator: Adobe Illustrator 16.0.0, SVG Export Plug-In . SVG Version: 6.00 Build 0)  -->
<!DOCTYPE svg PUBLIC "-//W3C//DTD SVG 1.0//EN" "http://www.w3.org/TR/2001/REC-SVG-20010904/DTD/svg10.dtd">
<svg version="1.0" id="Layer_1" xmlns="http://www.w3.org/2000/svg" xmlns:xlink="http://www.w3.org/1999/xlink" x="0px" y="0px"
	 width="100px" height="100px" viewBox="0 0 100 100" enable-background="new 0 0 100 100" xml:space="preserve">
<path fill="#BDBCBC" d="M30.664,50.475c-1.298-1.303-3.408-1.303-4.715,0l-8.047,8.05c-5.266,5.266-7.896,12.17-7.902,19.082
	c0,3.523,0.689,7.026,2.054,10.338c3.306,1.365,6.815,2.056,10.341,2.055c6.901-0.005,13.81-2.641,19.082-7.903l8.046-8.049
	c1.297-1.298,1.305-3.409,0-4.712L30.664,50.475z"/>
<path fill="#F4F5F5" d="M28.308,57.547l-5.688,5.693c-3.838,3.832-5.948,8.939-5.953,14.375c0,1.713,0.211,3.416,0.646,5.072
	c1.655,0.433,3.358,0.644,5.081,0.644c5.427,0.005,10.529-2.111,14.365-5.942l5.695-5.698L28.308,57.547z"/>
<path fill="#E0E0E0" d="M20.666,78.231c0.006-5.902,2.296-11.448,6.464-15.608l3.125-3.128l-1.947-1.948l-5.688,5.693
	c-3.838,3.832-5.948,8.939-5.953,14.375c0,1.713,0.211,3.416,0.646,5.072c1.293,0.339,2.616,0.537,3.955,0.609
	C20.869,81.638,20.666,79.94,20.666,78.231z"/>
<polygon fill="#8D6F64" points="90,28.856 71.148,10 66.428,14.713 73.5,21.785 26.36,68.924 31.078,73.639 78.214,26.5 
	77.842,26.127 85.284,33.57 "/>
<rect x="71.109" y="23.557" transform="matrix(-0.707 -0.7072 0.7072 -0.707 109.003 96.2714)" fill="#6D4D41" width="6.667" height="4"/>
</svg>
