<?xml version="1.0" encoding="utf-8"?>
<!-- Generator: Adobe Illustrator 16.0.0, SVG Export Plug-In . SVG Version: 6.00 Build 0)  -->
<!DOCTYPE svg PUBLIC "-//W3C//DTD SVG 1.0//EN" "http://www.w3.org/TR/2001/REC-SVG-20010904/DTD/svg10.dtd">
<svg version="1.0" id="Layer_1" xmlns="http://www.w3.org/2000/svg" xmlns:xlink="http://www.w3.org/1999/xlink" x="0px" y="0px"
	 width="100px" height="100px" viewBox="0 0 100 100" enable-background="new 0 0 100 100" xml:space="preserve">
<path fill="#37A4DC" d="M70,80.001c0,5.526,4.472,10,10,10c5.526,0,10-4.474,10-10c0-1.354-0.273-2.65-0.763-3.828
	C89.248,76.179,80,56.666,80,56.666s-9.239,19.513-9.239,19.507C70.273,77.351,70,78.646,70,80.001z"/>
<path fill="#37A4DC" d="M40,68.334c0,5.526,4.473,10,10,10c5.526,0,10-4.474,10-10c0-1.355-0.273-2.65-0.763-3.828
	C59.248,64.512,50,44.999,50,44.999s-9.238,19.513-9.238,19.507C40.273,65.684,40,66.979,40,68.334z"/>
<path fill="#37A4DC" d="M10,80.001c0,5.526,4.473,10,10,10s10-4.474,10-10c0-1.354-0.273-2.65-0.762-3.828
	C29.248,76.179,20,56.666,20,56.666s-9.238,19.513-9.238,19.507C10.273,77.351,10,78.646,10,80.001z"/>
<rect x="10" y="21.666" fill="#8D6F64" width="80" height="6.667"/>
<path fill="#E4F1FB" d="M76.667,80.001c0,1.836,1.497,3.333,3.333,3.333s3.333-1.497,3.333-3.333c0-0.405-0.072-0.802-0.214-1.18
	c-0.319-0.677-1.619-3.424-3.143-6.633c-1.536,3.138-3.053,6.529-3.053,6.529C76.752,79.127,76.667,79.557,76.667,80.001z"/>
<path fill="#E4F1FB" d="M46.667,68.334c0,1.836,1.498,3.332,3.333,3.332s3.333-1.496,3.333-3.332c0-0.403-0.072-0.802-0.214-1.179
	c-0.319-0.678-1.619-3.425-3.142-6.634c-1.537,3.137-3.054,6.529-3.054,6.529C46.751,67.462,46.667,67.892,46.667,68.334z"/>
<path fill="#E4F1FB" d="M16.667,80.001c0,1.836,1.498,3.333,3.333,3.333s3.333-1.497,3.333-3.333c0-0.405-0.071-0.802-0.215-1.18
	c-0.319-0.677-1.617-3.424-3.141-6.633c-1.537,3.138-3.054,6.529-3.054,6.529C16.751,79.127,16.667,79.557,16.667,80.001z"/>
<path fill="#B4E3F9" d="M82.701,77.937c-0.605,0.843-1.589,1.397-2.701,1.397c-1.12,0-2.111-0.563-2.716-1.416
	c-0.226,0.498-0.36,0.8-0.36,0.8c-0.172,0.409-0.257,0.839-0.257,1.283c0,1.836,1.497,3.333,3.333,3.333s3.333-1.497,3.333-3.333
	c0-0.405-0.072-0.802-0.214-1.18C83.037,78.649,82.894,78.346,82.701,77.937z"/>
<path fill="#B4E3F9" d="M52.701,66.27c-0.605,0.842-1.589,1.396-2.701,1.396c-1.12,0-2.111-0.563-2.716-1.414
	c-0.226,0.497-0.361,0.799-0.361,0.799c-0.172,0.411-0.257,0.841-0.257,1.283c0,1.836,1.498,3.332,3.333,3.332
	s3.333-1.496,3.333-3.332c0-0.403-0.072-0.802-0.214-1.179C53.037,66.983,52.894,66.679,52.701,66.27z"/>
<path fill="#B4E3F9" d="M22.701,77.937c-0.606,0.843-1.588,1.397-2.701,1.397c-1.121,0-2.111-0.563-2.716-1.416
	c-0.226,0.498-0.361,0.8-0.361,0.8c-0.172,0.409-0.257,0.839-0.257,1.283c0,1.836,1.498,3.333,3.333,3.333s3.333-1.497,3.333-3.333
	c0-0.405-0.071-0.802-0.215-1.18C23.038,78.649,22.894,78.346,22.701,77.937z"/>
<rect x="16.667" y="44.999" fill="#37A4DC" width="6.667" height="6.667"/>
<rect x="16.667" y="48.466" fill="#0077BD" width="6.667" height="3.2"/>
<rect x="16.667" y="33.332" fill="#37A4DC" width="6.667" height="6.667"/>
<rect x="16.667" y="36.799" fill="#0077BD" width="6.667" height="3.2"/>
<rect x="16.667" y="9.999" fill="#37A4DC" width="6.667" height="6.667"/>
<rect x="76.667" y="44.999" fill="#37A4DC" width="6.666" height="6.667"/>
<rect x="76.667" y="33.332" fill="#37A4DC" width="6.666" height="6.667"/>
<rect x="46.667" y="33.332" fill="#37A4DC" width="6.667" height="6.667"/>
<rect x="76.667" y="48.466" fill="#0077BD" width="6.666" height="3.2"/>
<rect x="76.667" y="36.799" fill="#0077BD" width="6.666" height="3.2"/>
<rect x="46.667" y="36.799" fill="#0077BD" width="6.667" height="3.2"/>
<rect x="76.667" y="9.999" fill="#37A4DC" width="6.666" height="6.667"/>
<rect x="46.667" y="9.999" fill="#37A4DC" width="6.667" height="6.667"/>
<rect x="16.667" y="13.466" fill="#0077BD" width="6.667" height="3.2"/>
<rect x="76.667" y="13.466" fill="#0077BD" width="6.666" height="3.2"/>
<rect x="46.667" y="13.466" fill="#0077BD" width="6.667" height="3.2"/>
</svg>
