<?xml version="1.0" encoding="utf-8"?>
<!-- Generator: Adobe Illustrator 16.0.0, SVG Export Plug-In . SVG Version: 6.00 Build 0)  -->
<!DOCTYPE svg PUBLIC "-//W3C//DTD SVG 1.0//EN" "http://www.w3.org/TR/2001/REC-SVG-20010904/DTD/svg10.dtd">
<svg version="1.0" id="Layer_1" xmlns="http://www.w3.org/2000/svg" xmlns:xlink="http://www.w3.org/1999/xlink" x="0px" y="0px"
	 width="100px" height="100px" viewBox="0 0 100 100" enable-background="new 0 0 100 100" xml:space="preserve">
<path fill="#F4F5F5" d="M83.333,49.999c0,18.413-14.922,33.334-33.333,33.334c-18.405,0-33.333-14.921-33.333-33.334
	c0-18.412,14.928-33.333,33.333-33.333C68.411,16.666,83.333,31.587,83.333,49.999z"/>
<path fill="#E0E0E0" d="M50,16.666c-0.672,0-1.337,0.025-1.999,0.064c17.479,1.035,31.332,15.53,31.332,33.269
	c0,17.74-13.854,32.234-31.332,33.269c0.662,0.039,1.327,0.065,1.999,0.065c18.411,0,33.333-14.921,33.333-33.334
	C83.333,31.587,68.411,16.666,50,16.666z"/>
<path fill="#E0E0E0" d="M28.98,33.403l-2.313-1.641l-2.313,1.64c-1.931,1.368-3.706,2.821-5.349,4.335
	c-1.503,3.796-2.338,7.929-2.338,12.261c0,15.007,9.917,27.69,23.549,31.872c4.385-4.109,7.117-10.133,7.117-16.689
	C47.333,53.08,40.815,41.794,28.98,33.403z"/>
<path fill="#455A64" d="M66.334,71.049l-18.69-18.691c-1.295-1.296-1.295-3.419,0-4.715L61.575,33.71l4.714,4.713L54.714,49.999
	l16.334,16.336L66.334,71.049z"/>
<path fill="#9D9D9D" d="M21.153,33.345c5.241-9.049,14.59-15.429,25.514-16.51v6.498h6.666v-6.498
	c15.75,1.563,28.269,14.082,29.831,29.83h-6.497v6.668h6.497c-1.563,15.748-14.081,28.269-29.831,29.831v-6.499h-6.666V89.83
	c1.1,0.093,2.207,0.171,3.333,0.171c22.091,0,40-17.911,40-40.002c0-22.089-17.909-40-40-40c-14.804,0-27.702,8.06-34.616,20.013
	L21.153,33.345z"/>
<path fill="#7CB342" d="M10,65.182c0,8.776,5.722,16.108,13.333,17.788v7.031H30V82.97c7.604-1.687,13.333-9.012,13.333-17.788
	c0-11.133-6.373-21.218-16.666-28.516C16.367,43.964,10,54.049,10,65.182z"/>
<path fill="#F1F7E9" d="M16.667,65.182c0,6.328,4.486,11.484,10,11.484c5.514,0,10-5.156,10-11.484c0-7.227-3.516-14.199-10-20.007
	C20.183,50.982,16.667,57.955,16.667,65.182z"/>
<path fill="#DBEBC7" d="M20.667,65.182c0-6.441,2.8-12.68,8-18.072c-0.634-0.657-1.296-1.304-2-1.935
	c-6.484,5.808-10,12.78-10,20.007c0,6.328,4.486,11.484,10,11.484c0.685,0,1.354-0.081,2-0.232
	C24.108,75.366,20.667,70.724,20.667,65.182z"/>
</svg>
