<?xml version="1.0" encoding="utf-8"?>
<!-- Generator: Adobe Illustrator 16.0.0, SVG Export Plug-In . SVG Version: 6.00 Build 0)  -->
<!DOCTYPE svg PUBLIC "-//W3C//DTD SVG 1.0//EN" "http://www.w3.org/TR/2001/REC-SVG-20010904/DTD/svg10.dtd">
<svg version="1.0" id="Layer_1" xmlns="http://www.w3.org/2000/svg" xmlns:xlink="http://www.w3.org/1999/xlink" x="0px" y="0px"
	 width="100px" height="100px" viewBox="0 0 100 100" enable-background="new 0 0 100 100" xml:space="preserve">
<polygon fill="#BDBCBC" points="66.667,50 66.667,23.333 50,10 33.333,23.333 33.333,50 "/>
<path fill="#8D6F64" d="M40,56.666V80c0,5.521,4.479,10,10,10c5.521,0,10-4.479,10-10V56.666H40z"/>
<polygon fill="#F4F5F5" points="60,43.333 60,26.538 50,18.537 40,26.538 40,43.333 "/>
<polygon fill="#E0E0E0" points="40,26.538 40,43.333 44,43.333 44,23.337 "/>
<path fill="#EEEAE8" d="M46.667,63.333V80c0,1.838,1.498,3.333,3.333,3.333c1.836,0,3.333-1.495,3.333-3.333V63.333H46.667z"/>
<rect x="46.667" y="30" fill="#455A64" width="6.666" height="26.666"/>
<rect x="46.667" y="52.666" fill="#263238" width="6.666" height="4"/>
</svg>
