<?xml version="1.0" encoding="utf-8"?>
<!-- Generator: Adobe Illustrator 16.0.0, SVG Export Plug-In . SVG Version: 6.00 Build 0)  -->
<!DOCTYPE svg PUBLIC "-//W3C//DTD SVG 1.0//EN" "http://www.w3.org/TR/2001/REC-SVG-20010904/DTD/svg10.dtd">
<svg version="1.0" id="Layer_1" xmlns="http://www.w3.org/2000/svg" xmlns:xlink="http://www.w3.org/1999/xlink" x="0px" y="0px"
	 width="100px" height="100px" viewBox="0 0 100 100" enable-background="new 0 0 100 100" xml:space="preserve">
<path fill="#478ECC" d="M40,59.166c0,5.526,4.473,10,10,10c5.526,0,10-4.474,10-10c0-1.354-0.273-2.648-0.763-3.828
	C59.248,55.346,50,35.834,50,35.834s-9.238,19.512-9.238,19.504C40.273,56.518,40,57.813,40,59.166z"/>
<path fill="#E4F1FB" d="M46.667,59.166c0,1.836,1.497,3.334,3.333,3.334s3.333-1.498,3.333-3.334c0-0.403-0.072-0.8-0.214-1.179
	c-0.319-0.676-1.619-3.423-3.143-6.634c-1.536,3.139-3.052,6.531-3.052,6.531C46.751,58.294,46.667,58.724,46.667,59.166z"/>
<path fill="#7CB342" d="M60.82,24.464l-5.072-8.617c-1.151-1.992-3.281-3.346-5.748-3.346c-2.467,0-4.596,1.354-5.75,3.346
	L26.116,46.673l5.761,3.326l18.121-30.774l5.045,8.575l0.003-0.001l-4.375,2.527l13.883,7.379L65.1,21.992L60.82,24.464z"/>
<path fill="#7CB342" d="M16.667,75.831l5.061-8.598L26,69.698l-0.554-15.714l-13.881,7.383l4.41,2.546l-5.058,8.598
	C10.35,73.494,10,74.614,10,75.831c0,3.68,2.985,6.668,6.667,6.668h36.666v-6.668H16.667z"/>
<path fill="#7CB342" d="M89.083,72.511L70.956,41.703l-5.774,3.336L83.3,75.831h-9.967v-5L60,79.166l13.333,8.333v-5h10
	c3.683,0,6.667-2.988,6.667-6.668C90,74.614,89.648,73.494,89.083,72.511z"/>
<rect x="73.333" y="75.831" fill="#568B3F" width="4" height="6.668"/>
<polygon fill="#568B3F" points="19.699,70.68 21.729,67.231 15.977,63.911 13.948,67.361 "/>
<polygon fill="#568B3F" points="55.042,27.8 60.82,24.467 58.791,21.018 53.014,24.354 "/>
</svg>
