<?xml version="1.0" encoding="utf-8"?>
<!-- Generator: Adobe Illustrator 16.0.0, SVG Export Plug-In . SVG Version: 6.00 Build 0)  -->
<!DOCTYPE svg PUBLIC "-//W3C//DTD SVG 1.0//EN" "http://www.w3.org/TR/2001/REC-SVG-20010904/DTD/svg10.dtd">
<svg version="1.0" id="Layer_1" xmlns="http://www.w3.org/2000/svg" xmlns:xlink="http://www.w3.org/1999/xlink" x="0px" y="0px"
	 width="100px" height="100px" viewBox="0 0 100 100" enable-background="new 0 0 100 100" xml:space="preserve">
<path fill="#3374B9" d="M86.666,23.335c-1.831,0-4.003,1.34-4.823,2.98L80,30c-5.521,0-10.521,2.24-14.14,5.859l-6.455,6.458v0.007
	l-1.294-5.818C57.316,32.931,53.665,30,50.001,30H30c-3.682,0-6.667,2.985-6.667,6.667v53.332h46.667l-8.885-39.971l9.456-9.455
	c2.521-2.52,5.869-3.906,9.428-3.906l1.843,3.685c0.82,1.641,2.992,2.983,4.823,2.983H90v-20H86.666z"/>
<polygon fill="#E4F1FB" points="30,83.334 61.689,83.334 60.207,76.667 30,76.667 "/>
<path fill="#E4F1FB" d="M58.729,70l-7.126-32.051c-0.117-0.526-1.063-1.282-1.602-1.282H30V70H58.729z"/>
<polygon fill="#13499D" points="62.755,38.965 59.405,42.318 61.116,50.028 64.47,46.676 "/>
<path fill="#455A64" d="M23.333,56.667l-7.369-3.685C12.684,51.342,10,46.999,10,43.335V16.667C10,12.986,12.985,10,16.667,10
	h16.665c3.667,0,7.319,2.931,8.113,6.508l3,13.492h-6.828l-2.676-12.044c-0.121-0.529-1.068-1.289-1.609-1.289H16.667v26.668
	c0,1.142,1.256,3.173,2.278,3.684l4.388,2.194V56.667z"/>
<polygon fill="#263238" points="37.618,30 44.446,30 43.556,26 36.729,26 "/>
<polygon fill="#263238" points="23.333,49.214 19.333,47.213 19.333,54.667 23.333,56.667 "/>
</svg>
