<?xml version="1.0" encoding="utf-8"?>
<!-- Generator: Adobe Illustrator 16.0.0, SVG Export Plug-In . SVG Version: 6.00 Build 0)  -->
<!DOCTYPE svg PUBLIC "-//W3C//DTD SVG 1.0//EN" "http://www.w3.org/TR/2001/REC-SVG-20010904/DTD/svg10.dtd">
<svg version="1.0" id="Layer_1" xmlns="http://www.w3.org/2000/svg" xmlns:xlink="http://www.w3.org/1999/xlink" x="0px" y="0px"
	 width="100px" height="100px" viewBox="0 0 100 100" enable-background="new 0 0 100 100" xml:space="preserve">
<path fill="#37A4DC" d="M43.333,80.001c0,5.523,4.479,10,10,10c5.521,0,10-4.477,10-10c0-1.356-0.272-2.647-0.763-3.827
	c0.005,0-9.234-21.173-9.234-21.173l-9.238,21.172C43.606,77.351,43.333,78.645,43.333,80.001z"/>
<path fill="#37A4DC" d="M63.333,53.332c0,7.364,5.972,13.334,13.334,13.334S90,60.696,90,53.332c0-1.807-0.362-3.526-1.016-5.101
	C88.987,48.231,76.67,20,76.67,20L64.354,48.229C63.7,49.801,63.333,51.525,63.333,53.332z"/>
<path fill="#37A4DC" d="M10,51.666c0,9.205,7.462,16.666,16.667,16.666c9.206,0,16.667-7.461,16.667-16.666
	c-0.001-2.26-0.457-4.41-1.271-6.377C42.067,45.289,26.67,10,26.67,10L11.273,45.285C10.456,47.252,10,49.406,10,51.666z"/>
<path fill="#E1F3FC" d="M70,53.332c0,3.677,2.99,6.669,6.667,6.669c3.675,0,6.666-2.992,6.666-6.669
	c0-0.867-0.166-1.708-0.491-2.511c-0.289-0.666-3.237-7.424-6.172-14.151l-6.162,14.121C70.169,51.603,70,52.454,70,53.332z"/>
<path fill="#B4E3F9" d="M76.667,56.001c-2.977,0-5.503-1.963-6.357-4.663C70.104,51.982,70,52.649,70,53.332
	c0,3.677,2.99,6.669,6.667,6.669c3.675,0,6.666-2.992,6.666-6.669c0-0.683-0.108-1.35-0.31-1.995
	C82.17,54.037,79.644,56.001,76.667,56.001z"/>
<path fill="#E1F3FC" d="M50,80.001c0,1.837,1.497,3.331,3.333,3.331c1.839,0,3.334-1.494,3.334-3.331
	c0-0.429-0.083-0.844-0.24-1.241c-0.194-0.443-1.513-3.464-3.091-7.089l-3.086,7.065C50.084,79.137,50,79.563,50,80.001z"/>
<path fill="#B4E3F9" d="M56.057,77.911c-0.604,0.856-1.598,1.421-2.724,1.421c-1.125,0-2.118-0.564-2.722-1.421l-0.361,0.825
	c-0.166,0.4-0.25,0.827-0.25,1.265c0,1.837,1.497,3.331,3.333,3.331c1.839,0,3.334-1.494,3.334-3.331
	c0-0.429-0.083-0.844-0.24-1.241C56.375,78.645,56.245,78.347,56.057,77.911z"/>
<path fill="#E1F3FC" d="M16.667,51.666c0,5.515,4.486,10,10,10c5.514,0,10-4.485,9.999-10c0-1.303-0.25-2.574-0.745-3.785
	c-0.364-0.838-5.125-11.755-9.251-21.212l-9.241,21.175C16.924,49.062,16.667,50.349,16.667,51.666z"/>
<path fill="#B4E3F9" d="M26.667,57.666c-4.827,0-8.865-3.438-9.797-7.992c-0.133,0.653-0.203,1.319-0.203,1.992
	c0,5.515,4.486,10,10,10c5.514,0,10-4.485,9.999-10c0-0.673-0.069-1.337-0.203-1.99C35.531,54.23,31.493,57.666,26.667,57.666z"/>
</svg>
